<svg width="100" height="35" viewBox="0 0 100 35" fill="none" xmlns="http://www.w3.org/2000/svg">
<path d="M8.97872 27.2796V30.5261H8.65503V27.2796H8.97872ZM11.7872 27.9365C12.0919 27.9365 12.3394 28.0317 12.5298 28.2222C12.7203 28.4126 12.8155 28.6791 12.8155 29.0409V30.5261H12.5013V29.079C12.5013 28.8029 12.4346 28.5935 12.2918 28.4506C12.149 28.3078 11.9681 28.2317 11.7301 28.2317C11.4921 28.2317 11.2922 28.3078 11.1494 28.4602C11.0066 28.6125 10.9304 28.841 10.9304 29.1456V30.5261H10.6067V27.9937H10.9304V28.4221C11.0161 28.2698 11.1303 28.146 11.2827 28.0698C11.4255 27.9841 11.5968 27.9461 11.7872 27.9365ZM15.424 28.2602H14.8338V30.5261H14.5101V28.2602H14.1578V27.9841H14.5101V27.8033C14.5101 27.5272 14.5767 27.3272 14.7195 27.1939C14.8623 27.0607 15.0908 27.0035 15.405 27.0035V27.2796C15.1956 27.2796 15.0432 27.3177 14.9575 27.4034C14.8719 27.4891 14.8338 27.6224 14.8338 27.8033V27.9841H15.424V28.2602ZM16.9759 27.5081C16.9092 27.5081 16.8521 27.4891 16.8045 27.4415C16.7569 27.3939 16.7379 27.3368 16.7379 27.2701C16.7379 27.2035 16.7569 27.1463 16.8045 27.0987C16.8521 27.0511 16.9092 27.0321 16.9759 27.0321C17.0425 27.0321 17.0996 27.0511 17.1472 27.0987C17.1948 27.1463 17.2139 27.2035 17.2139 27.2701C17.2139 27.3368 17.1948 27.3939 17.1472 27.4415C17.0996 27.4891 17.0425 27.5081 16.9759 27.5081ZM17.1377 27.9841V30.5166H16.814V27.9841H17.1377ZM19.9462 27.9365C20.2509 27.9365 20.4984 28.0317 20.6888 28.2222C20.8793 28.4126 20.9745 28.6791 20.9745 29.0409V30.5261H20.6508V29.079C20.6508 28.8029 20.5841 28.5935 20.4413 28.4506C20.2985 28.3078 20.1176 28.2317 19.8796 28.2317C19.6416 28.2317 19.4417 28.3078 19.2989 28.4602C19.1561 28.6125 19.0799 28.841 19.0799 29.1456V30.5261H18.7562V27.9937H19.0799V28.4221C19.1656 28.2698 19.2798 28.146 19.4321 28.0698C19.5845 27.9841 19.7558 27.9365 19.9462 27.9365ZM22.7453 27.5081C22.6786 27.5081 22.6215 27.4891 22.5739 27.4415C22.5263 27.3939 22.5072 27.3368 22.5072 27.2701C22.5072 27.2035 22.5263 27.1463 22.5739 27.0987C22.6215 27.0511 22.6786 27.0321 22.7453 27.0321C22.8119 27.0321 22.869 27.0511 22.9166 27.0987C22.9642 27.1463 22.9833 27.2035 22.9833 27.2701C22.9833 27.3368 22.9642 27.3939 22.9166 27.4415C22.869 27.4891 22.8119 27.5081 22.7453 27.5081ZM22.9071 27.9841V30.5166H22.5834V27.9841H22.9071ZM24.9445 28.2602V29.8311C24.9445 29.9834 24.973 30.0977 25.0302 30.1548C25.0873 30.2119 25.192 30.2405 25.3443 30.2405H25.6395V30.5166H25.2872C25.0587 30.5166 24.8873 30.4595 24.7731 30.3547C24.6589 30.25 24.6017 30.0691 24.6017 29.8311V28.2602H24.2495V27.9841H24.6017V27.3463H24.935V27.9841H25.6299V28.2602H24.9445ZM29.3524 29.1266C29.3524 29.2408 29.3524 29.3265 29.3429 29.3836H27.2389C27.2484 29.5741 27.296 29.7359 27.3817 29.8787C27.4674 30.012 27.5721 30.1167 27.7149 30.1834C27.8482 30.25 28.0005 30.2881 28.1624 30.2881C28.3718 30.2881 28.5527 30.2405 28.6955 30.1358C28.8383 30.031 28.9335 29.8977 28.9811 29.7264H29.3239C29.2667 29.9739 29.1335 30.1738 28.924 30.3357C28.7241 30.488 28.467 30.5737 28.1624 30.5737C27.9244 30.5737 27.7054 30.5166 27.5245 30.4118C27.3436 30.3071 27.1913 30.1548 27.077 29.9549C26.9723 29.7549 26.9152 29.5265 26.9152 29.2694C26.9152 29.0123 26.9628 28.7743 27.077 28.5744C27.1818 28.3745 27.3246 28.2222 27.515 28.1174C27.7054 28.0127 27.9148 27.9556 28.1624 27.9556C28.4099 27.9556 28.6194 28.0032 28.8002 28.1174C28.9811 28.2222 29.1239 28.365 29.2191 28.5458C29.3048 28.7077 29.3524 28.9076 29.3524 29.1266ZM29.0287 29.1171C29.0287 28.9267 28.9907 28.7648 28.9145 28.6315C28.8383 28.4982 28.7241 28.3935 28.5908 28.3269C28.4575 28.2602 28.3052 28.2222 28.1433 28.2222C27.9053 28.2222 27.6959 28.2983 27.5245 28.4506C27.3531 28.603 27.2579 28.8219 27.2389 29.1076L29.0287 29.1171ZM33.9508 27.2796C34.3126 27.2796 34.6172 27.3463 34.8743 27.47C35.1313 27.6033 35.3313 27.7842 35.4645 28.0317C35.5978 28.2793 35.6645 28.5649 35.6645 28.9076C35.6645 29.2504 35.5978 29.5264 35.4645 29.774C35.3313 30.0215 35.1313 30.2024 34.8743 30.3357C34.6172 30.469 34.3126 30.5261 33.9508 30.5261H32.9892V27.2796H33.9508ZM33.9508 30.25C34.4078 30.25 34.7505 30.1358 34.9885 29.8977C35.2265 29.6597 35.3408 29.3265 35.3408 28.9076C35.3408 28.4887 35.2265 28.146 34.9885 27.908C34.7505 27.67 34.4078 27.5462 33.9508 27.5462H33.3129V30.25H33.9508ZM37.3115 27.5081C37.2449 27.5081 37.1877 27.4891 37.1401 27.4415C37.0925 27.3939 37.0735 27.3368 37.0735 27.2701C37.0735 27.2035 37.0925 27.1463 37.1401 27.0987C37.1877 27.0511 37.2449 27.0321 37.3115 27.0321C37.3781 27.0321 37.4353 27.0511 37.4829 27.0987C37.5305 27.1463 37.5495 27.2035 37.5495 27.2701C37.5495 27.3368 37.5305 27.3939 37.4829 27.4415C37.4353 27.4891 37.3781 27.5081 37.3115 27.5081ZM37.4733 27.9841V30.5166H37.1497V27.9841H37.4733ZM40.1581 27.9461C40.3961 27.9461 40.6056 28.0032 40.7769 28.1174C40.9483 28.2317 41.0816 28.365 41.1578 28.5363V27.9841H41.4814V30.5832C41.4814 30.8117 41.4338 31.0212 41.3291 31.202C41.2244 31.3829 41.0911 31.5162 40.9102 31.6209C40.7293 31.7161 40.5294 31.7637 40.3009 31.7637C39.9772 31.7637 39.7106 31.6876 39.4917 31.5353C39.2727 31.3829 39.1394 31.1735 39.0918 30.9069H39.4155C39.4726 31.0878 39.5774 31.2211 39.7297 31.3258C39.882 31.4305 40.0724 31.4877 40.3009 31.4877C40.4628 31.4877 40.6151 31.4496 40.7389 31.3829C40.8721 31.3163 40.9673 31.2116 41.0435 31.0783C41.1197 30.945 41.1578 30.7831 41.1578 30.5927V29.9644C41.0721 30.1358 40.9483 30.2786 40.7769 30.3928C40.6056 30.5071 40.3961 30.5642 40.1581 30.5642C39.9201 30.5642 39.7202 30.5071 39.5298 30.4023C39.3489 30.2976 39.1965 30.1358 39.1013 29.9453C39.0061 29.7549 38.949 29.5169 38.949 29.2599C38.949 29.0028 38.9966 28.7743 39.1013 28.5744C39.2061 28.3745 39.3489 28.2222 39.5298 28.1174C39.7106 28.0032 39.9201 27.9556 40.1581 27.9461ZM41.1578 29.2504C41.1578 29.0504 41.1197 28.8695 41.034 28.7077C40.9483 28.5458 40.8341 28.4316 40.6912 28.3459C40.5484 28.2602 40.3866 28.2222 40.2152 28.2222C40.0439 28.2222 39.8725 28.2602 39.7297 28.3459C39.5869 28.4316 39.4726 28.5458 39.3965 28.6982C39.3108 28.8505 39.2727 29.0314 39.2727 29.2408C39.2727 29.4503 39.3108 29.6312 39.3965 29.7835C39.4822 29.9358 39.5869 30.0596 39.7297 30.1453C39.8725 30.231 40.0343 30.269 40.2152 30.269C40.3961 30.269 40.5484 30.231 40.6912 30.1453C40.8341 30.0596 40.9483 29.9453 41.034 29.7835C41.1197 29.6312 41.1578 29.4598 41.1578 29.2504ZM43.2713 27.5081C43.2046 27.5081 43.1475 27.4891 43.0999 27.4415C43.0523 27.3939 43.0333 27.3368 43.0333 27.2701C43.0333 27.2035 43.0523 27.1463 43.0999 27.0987C43.1475 27.0511 43.2046 27.0321 43.2713 27.0321C43.3379 27.0321 43.3951 27.0511 43.4427 27.0987C43.4903 27.1463 43.5093 27.2035 43.5093 27.2701C43.5093 27.3368 43.4903 27.3939 43.4427 27.4415C43.3951 27.4891 43.3379 27.5081 43.2713 27.5081ZM43.4331 27.9841V30.5166H43.1094V27.9841H43.4331ZM45.48 28.2602V29.8311C45.48 29.9834 45.5086 30.0977 45.5657 30.1548C45.6228 30.2119 45.7276 30.2405 45.8799 30.2405H46.175V30.5166H45.8228C45.5943 30.5166 45.4229 30.4595 45.3087 30.3547C45.1944 30.25 45.1373 30.0691 45.1373 29.8311V28.2602H44.785V27.9841H45.1373V27.3463H45.4705V27.9841H46.1655V28.2602H45.48ZM47.4412 29.2504C47.4412 28.9933 47.4888 28.7648 47.5936 28.5649C47.6983 28.365 47.8411 28.2126 48.022 28.1079C48.2029 28.0032 48.4123 27.9461 48.6503 27.9461C48.8883 27.9461 49.0978 28.0032 49.2787 28.1174C49.4596 28.2317 49.5833 28.3745 49.6595 28.5458V27.9841H49.9832V30.5166H49.6595V29.9549C49.5833 30.1262 49.45 30.269 49.2787 30.3833C49.1073 30.4975 48.8979 30.5547 48.6503 30.5547C48.4028 30.5547 48.2124 30.4975 48.0315 30.3928C47.8506 30.2881 47.6983 30.1262 47.6031 29.9358C47.4888 29.7359 47.4412 29.5074 47.4412 29.2504ZM49.65 29.2504C49.65 29.0504 49.6119 28.8695 49.5262 28.7077C49.4405 28.5458 49.3263 28.4316 49.1835 28.3459C49.0407 28.2602 48.8788 28.2222 48.7074 28.2222C48.5361 28.2222 48.3647 28.2602 48.2219 28.3459C48.0791 28.4316 47.9649 28.5458 47.8887 28.6982C47.803 28.8505 47.7649 29.0314 47.7649 29.2408C47.7649 29.4503 47.803 29.6312 47.8887 29.7835C47.9744 29.9358 48.0791 30.0596 48.2219 30.1453C48.3647 30.231 48.5266 30.269 48.7074 30.269C48.8883 30.269 49.0407 30.231 49.1835 30.1453C49.3263 30.0596 49.4405 29.9453 49.5262 29.7835C49.6119 29.6312 49.65 29.4598 49.65 29.2504ZM51.9253 27.0892V30.5261H51.6017V27.0892H51.9253ZM57.7804 28.2126C57.7804 28.4887 57.6852 28.7172 57.5043 28.8886C57.3234 29.06 57.0473 29.1456 56.6856 29.1456H56.0287V30.5261H55.705V27.2796H56.6856C57.0473 27.2796 57.3234 27.3653 57.5043 27.5367C57.6852 27.6985 57.7804 27.927 57.7804 28.2126ZM56.6856 28.86C57.1901 28.86 57.4472 28.6411 57.4472 28.2126C57.4472 27.9937 57.3901 27.8318 57.2663 27.7176C57.1425 27.6033 56.9521 27.5462 56.6856 27.5462H56.0287V28.86H56.6856ZM60.3128 30.5547C60.0748 30.5547 59.8559 30.4975 59.6655 30.3928C59.4751 30.2881 59.3227 30.1358 59.218 29.9358C59.1038 29.7359 59.0561 29.5074 59.0561 29.2504C59.0561 28.9933 59.1133 28.7553 59.2275 28.5649C59.3418 28.3745 59.4941 28.2126 59.6845 28.1079C59.8749 28.0032 60.0939 27.9461 60.3319 27.9461C60.5699 27.9461 60.7889 28.0032 60.9793 28.1079C61.1697 28.2126 61.322 28.365 61.4363 28.5649C61.5505 28.7648 61.5981 28.9933 61.5981 29.2504C61.5981 29.5074 61.541 29.7359 61.4267 29.9358C61.3125 30.1358 61.1602 30.2881 60.9698 30.3928C60.7793 30.4975 60.5509 30.5547 60.3128 30.5547ZM60.3128 30.2786C60.4842 30.2786 60.6365 30.2405 60.7793 30.1643C60.9221 30.0882 61.0364 29.9739 61.1221 29.8216C61.2078 29.6693 61.2554 29.4788 61.2554 29.2599C61.2554 29.0409 61.2078 28.8505 61.1221 28.6982C61.0364 28.5458 60.9221 28.4316 60.7793 28.3554C60.6365 28.2793 60.4842 28.2412 60.3128 28.2412C60.1415 28.2412 59.9892 28.2793 59.8463 28.3554C59.7035 28.4316 59.5893 28.5458 59.5036 28.6982C59.4179 28.8505 59.3798 29.0409 59.3798 29.2599C59.3798 29.4788 59.4274 29.6693 59.5036 29.8216C59.5798 29.9739 59.7035 30.0882 59.8463 30.1643C59.9892 30.2405 60.151 30.2786 60.3128 30.2786ZM63.9401 30.5547C63.645 30.5547 63.4165 30.488 63.2261 30.3547C63.0452 30.2214 62.9405 30.0406 62.9214 29.8025H63.2547C63.2737 29.9453 63.3403 30.0596 63.4546 30.1453C63.5688 30.231 63.7307 30.2786 63.9306 30.2786C64.102 30.2786 64.2448 30.2405 64.3495 30.1548C64.4542 30.0691 64.5018 29.9644 64.5018 29.8406C64.5018 29.7549 64.4733 29.6788 64.4161 29.6312C64.359 29.5741 64.2924 29.536 64.2067 29.4979C64.121 29.4693 64.0068 29.4312 63.864 29.3932C63.6736 29.3456 63.5212 29.298 63.407 29.2408C63.2927 29.1837 63.188 29.1171 63.1023 29.0219C63.0166 28.9267 62.9786 28.7934 62.9786 28.6315C62.9786 28.5078 63.0166 28.3935 63.0928 28.2888C63.169 28.1841 63.2737 28.0984 63.407 28.0413C63.5403 27.9841 63.7021 27.9461 63.8735 27.9461C64.1496 27.9461 64.3685 28.0127 64.5304 28.1555C64.7018 28.2983 64.7874 28.4792 64.797 28.7267H64.4733C64.4638 28.5744 64.4066 28.4602 64.3019 28.365C64.1972 28.2698 64.0448 28.2317 63.864 28.2317C63.7021 28.2317 63.5688 28.2698 63.4641 28.3459C63.3594 28.4221 63.3118 28.5173 63.3118 28.6315C63.3118 28.7267 63.3403 28.8124 63.407 28.8791C63.4641 28.9457 63.5403 28.9933 63.6355 29.0314C63.7212 29.0695 63.8449 29.1076 63.9972 29.1456C64.1781 29.1932 64.3305 29.2408 64.4352 29.2884C64.5399 29.336 64.6351 29.4027 64.7113 29.4884C64.7874 29.5741 64.8255 29.6978 64.835 29.8501C64.835 29.9834 64.797 30.1072 64.7208 30.2119C64.6446 30.3166 64.5399 30.4023 64.4066 30.469C64.2733 30.5356 64.1115 30.5547 63.9401 30.5547ZM67.1866 30.5547C66.8915 30.5547 66.663 30.488 66.4726 30.3547C66.2917 30.2214 66.1869 30.0406 66.1679 29.8025H66.5011C66.5202 29.9453 66.5868 30.0596 66.701 30.1453C66.8153 30.231 66.9771 30.2786 67.1771 30.2786C67.3484 30.2786 67.4912 30.2405 67.596 30.1548C67.7007 30.0691 67.7483 29.9644 67.7483 29.8406C67.7483 29.7549 67.7197 29.6788 67.6626 29.6312C67.6055 29.5741 67.5388 29.536 67.4532 29.4979C67.3675 29.4693 67.2532 29.4312 67.1104 29.3932C66.92 29.3456 66.7677 29.298 66.6534 29.2408C66.5392 29.1837 66.4345 29.1171 66.3488 29.0219C66.2631 28.9267 66.225 28.7934 66.225 28.6315C66.225 28.5078 66.2631 28.3935 66.3393 28.2888C66.4154 28.1841 66.5202 28.0984 66.6534 28.0413C66.7867 27.9841 66.9486 27.9461 67.1199 27.9461C67.396 27.9461 67.615 28.0127 67.7769 28.1555C67.9482 28.2983 68.0339 28.4792 68.0434 28.7267H67.7197C67.7102 28.5744 67.6531 28.4602 67.5484 28.365C67.4436 28.2698 67.2913 28.2317 67.1104 28.2317C66.9486 28.2317 66.8153 28.2698 66.7106 28.3459C66.6058 28.4221 66.5582 28.5173 66.5582 28.6315C66.5582 28.7267 66.5868 28.8124 66.6534 28.8791C66.7106 28.9457 66.7867 28.9933 66.8819 29.0314C66.9676 29.0695 67.0914 29.1076 67.2437 29.1456C67.4246 29.1932 67.5769 29.2408 67.6816 29.2884C67.7864 29.336 67.8816 29.4027 67.9577 29.4884C68.0339 29.5741 68.072 29.6978 68.0815 29.8501C68.0815 29.9834 68.0434 30.1072 67.9673 30.2119C67.8911 30.3166 67.7864 30.4023 67.6531 30.469C67.5198 30.5356 67.3675 30.5547 67.1866 30.5547ZM69.7285 27.5081C69.6619 27.5081 69.6048 27.4891 69.5572 27.4415C69.5096 27.3939 69.4905 27.3368 69.4905 27.2701C69.4905 27.2035 69.5096 27.1463 69.5572 27.0987C69.6048 27.0511 69.6619 27.0321 69.7285 27.0321C69.7952 27.0321 69.8523 27.0511 69.8999 27.0987C69.9475 27.1463 69.9666 27.2035 69.9666 27.2701C69.9666 27.3368 69.9475 27.3939 69.8999 27.4415C69.8523 27.4891 69.7952 27.5081 69.7285 27.5081ZM69.8904 27.9841V30.5166H69.5667V27.9841H69.8904ZM71.8326 28.5458C71.9182 28.365 72.042 28.2222 72.2229 28.1174C72.3943 28.0032 72.6037 27.9461 72.8417 27.9461C73.0797 27.9461 73.2797 28.0032 73.4605 28.1079C73.6414 28.2126 73.7842 28.365 73.889 28.5649C73.9937 28.7648 74.0413 28.9933 74.0413 29.2504C74.0413 29.5074 73.9937 29.7359 73.889 29.9358C73.7842 30.1358 73.6414 30.2881 73.4605 30.3928C73.2797 30.4975 73.0702 30.5547 72.8417 30.5547C72.6037 30.5547 72.3943 30.4975 72.2134 30.3928C72.042 30.2881 71.9087 30.1358 71.8326 29.9644V30.5261H71.5089V27.0892H71.8326V28.5458ZM73.7176 29.2504C73.7176 29.0409 73.6795 28.86 73.5938 28.7077C73.5081 28.5554 73.4034 28.4411 73.2606 28.3554C73.1178 28.2698 72.956 28.2317 72.7751 28.2317C72.5942 28.2317 72.4419 28.2698 72.2991 28.3554C72.1562 28.4411 72.042 28.5554 71.9563 28.7172C71.8706 28.8695 71.8326 29.0504 71.8326 29.2599C71.8326 29.4693 71.8706 29.6407 71.9563 29.8025C72.042 29.9644 72.1562 30.0786 72.2991 30.1643C72.4419 30.25 72.6037 30.2881 72.7751 30.2881C72.9464 30.2881 73.1178 30.25 73.2606 30.1643C73.4034 30.0786 73.5177 29.9644 73.5938 29.8025C73.6795 29.6407 73.7176 29.4598 73.7176 29.2504ZM75.6883 27.5081C75.6217 27.5081 75.5646 27.4891 75.517 27.4415C75.4694 27.3939 75.4503 27.3368 75.4503 27.2701C75.4503 27.2035 75.4694 27.1463 75.517 27.0987C75.5646 27.0511 75.6217 27.0321 75.6883 27.0321C75.755 27.0321 75.8121 27.0511 75.8597 27.0987C75.9073 27.1463 75.9263 27.2035 75.9263 27.2701C75.9263 27.3368 75.9073 27.3939 75.8597 27.4415C75.8121 27.4796 75.755 27.5081 75.6883 27.5081ZM75.8597 27.9841V30.5166H75.5265V27.9841H75.8597ZM77.8019 27.0797V30.5166H77.4782V27.0797H77.8019ZM79.5822 27.5081C79.5155 27.5081 79.4584 27.4891 79.4108 27.4415C79.3632 27.3939 79.3442 27.3368 79.3442 27.2701C79.3442 27.2035 79.3632 27.1463 79.4108 27.0987C79.4584 27.0511 79.5155 27.0321 79.5822 27.0321C79.6488 27.0321 79.7059 27.0511 79.7535 27.0987C79.8012 27.1463 79.8202 27.2035 79.8202 27.2701C79.8202 27.3368 79.8012 27.3939 79.7535 27.4415C79.7059 27.4796 79.6488 27.5081 79.5822 27.5081ZM79.744 27.9841V30.5166H79.4203V27.9841H79.744ZM81.7909 28.2602V29.8311C81.7909 29.9834 81.8195 30.0977 81.8766 30.1548C81.9337 30.2119 82.0385 30.2405 82.1908 30.2405H82.4859V30.5166H82.1337C81.9052 30.5166 81.7338 30.4595 81.6196 30.3547C81.5053 30.25 81.4482 30.0691 81.4482 29.8311V28.2602H81.0959V27.9841H81.4482V27.3463H81.7814V27.9841H82.4764V28.2602H81.7909ZM84.0663 27.5081C83.9997 27.5081 83.9425 27.4891 83.8949 27.4415C83.8473 27.3939 83.8283 27.3368 83.8283 27.2701C83.8283 27.2035 83.8473 27.1463 83.8949 27.0987C83.9425 27.0511 83.9997 27.0321 84.0663 27.0321C84.1329 27.0321 84.1901 27.0511 84.2377 27.0987C84.2853 27.1463 84.3043 27.2035 84.3043 27.2701C84.3043 27.3368 84.2853 27.3939 84.2377 27.4415C84.1805 27.4796 84.1329 27.5081 84.0663 27.5081ZM84.2281 27.9841V30.5166H83.9044V27.9841H84.2281ZM88.141 29.1266C88.141 29.2408 88.141 29.3265 88.1315 29.3836H86.0275C86.037 29.5741 86.0846 29.7359 86.1703 29.8787C86.256 30.012 86.3607 30.1167 86.5035 30.1834C86.6368 30.25 86.7891 30.2881 86.951 30.2881C87.1604 30.2881 87.3413 30.2405 87.4841 30.1358C87.6269 30.031 87.7221 29.8977 87.7697 29.7264H88.1125C88.0458 29.9739 87.9221 30.1738 87.7126 30.3357C87.5127 30.488 87.2556 30.5737 86.951 30.5737C86.713 30.5737 86.494 30.5166 86.3131 30.4118C86.1322 30.3071 85.9799 30.1548 85.8657 29.9549C85.7609 29.7549 85.7038 29.5265 85.7038 29.2694C85.7038 29.0123 85.7514 28.7743 85.8657 28.5744C85.9704 28.3745 86.1227 28.2222 86.3036 28.1174C86.494 28.0127 86.7035 27.9556 86.951 27.9556C87.1985 27.9556 87.408 28.0032 87.5889 28.1174C87.7697 28.2222 87.9125 28.365 88.0078 28.5458C88.0934 28.7077 88.141 28.9076 88.141 29.1266ZM87.8078 29.1171C87.8078 28.9267 87.7697 28.7648 87.6936 28.6315C87.6174 28.4982 87.5032 28.3935 87.3699 28.3269C87.2366 28.2602 87.0843 28.2222 86.9224 28.2222C86.6844 28.2222 86.475 28.2983 86.3036 28.4506C86.1322 28.603 86.037 28.8219 86.018 29.1076L87.8078 29.1171ZM90.4926 30.5547C90.1975 30.5547 89.969 30.488 89.7786 30.3547C89.5977 30.2214 89.4929 30.0406 89.4739 29.8025H89.8071C89.8262 29.9453 89.8928 30.0596 90.007 30.1453C90.1213 30.231 90.2831 30.2786 90.4831 30.2786C90.6544 30.2786 90.7972 30.2405 90.902 30.1548C91.0067 30.0691 91.0543 29.9644 91.0543 29.8406C91.0543 29.7549 91.0257 29.6788 90.9686 29.6312C90.9115 29.5741 90.8448 29.536 90.7592 29.4979C90.6735 29.4693 90.5592 29.4312 90.4164 29.3932C90.226 29.3456 90.0737 29.298 89.9594 29.2408C89.8452 29.1837 89.7405 29.1171 89.6548 29.0219C89.5691 28.9267 89.531 28.7934 89.531 28.6315C89.531 28.5078 89.5691 28.3935 89.6453 28.2888C89.7214 28.1841 89.8262 28.0984 89.9594 28.0413C90.0927 27.9841 90.2546 27.9461 90.4259 27.9461C90.702 27.9461 90.921 28.0127 91.0829 28.1555C91.2542 28.2983 91.3399 28.4792 91.3494 28.7267H91.0257C91.0162 28.5744 90.9591 28.4602 90.8544 28.365C90.7496 28.2698 90.5973 28.2317 90.4164 28.2317C90.2546 28.2317 90.1213 28.2698 90.0166 28.3459C89.9118 28.4221 89.8642 28.5173 89.8642 28.6315C89.8642 28.7267 89.8928 28.8124 89.9594 28.8791C90.0166 28.9457 90.0927 28.9933 90.1879 29.0314C90.2736 29.0695 90.3974 29.1076 90.5497 29.1456C90.7306 29.1932 90.8829 29.2408 90.9876 29.2884C91.0924 29.336 91.1876 29.4027 91.2637 29.4884C91.3399 29.5741 91.378 29.6978 91.3875 29.8501C91.3875 29.9834 91.3494 30.1072 91.2733 30.2119C91.1971 30.3166 91.0924 30.4023 90.9591 30.469C90.8258 30.5356 90.664 30.5547 90.4926 30.5547Z" fill="#0056D2"/>
<path fill-rule="evenodd" clip-rule="evenodd" d="M15.367 18.3305C15.4908 18.5304 15.5955 18.7303 15.7003 18.9302C15.8145 19.1302 15.9287 19.3396 16.043 19.5395C16.1572 19.7395 16.2715 19.9394 16.3857 20.1298C16.5 20.3202 16.6237 20.5201 16.7475 20.7106C16.8713 20.9105 17.0046 21.1009 17.1378 21.3008C17.2616 21.4912 17.3949 21.6721 17.5282 21.8625C17.4901 21.9101 17.4711 21.9482 17.433 21.9768C16.8237 22.6051 16.1382 23.1383 15.3575 23.5381C14.7673 23.8428 14.1389 24.0617 13.482 24.195C12.8346 24.3283 12.1777 24.3759 11.5208 24.3474C10.1499 24.2712 8.87412 23.8809 7.71262 23.1478C6.57017 22.4242 5.66573 21.4722 4.9993 20.2917C4.57089 19.53 4.27575 18.7113 4.12343 17.8449C4.0187 17.2546 3.98062 16.6644 4.00918 16.0646C4.05678 15.1126 4.26623 14.1986 4.64705 13.3227C5.26588 11.9137 6.19888 10.7808 7.46509 9.91441C8.38857 9.28606 9.40726 8.86716 10.5116 8.66723C11.1685 8.55299 11.8254 8.52443 12.4919 8.56251C13.482 8.62915 14.434 8.86716 15.329 9.31462C15.9287 9.61927 16.4809 9.99057 16.9855 10.438C17.5567 10.9426 18.0613 11.5043 18.5088 12.1136C19.061 12.8562 19.5465 13.6464 19.994 14.4556C20.47 15.303 20.9365 16.1598 21.4125 17.0071C21.7457 17.5879 22.098 18.1591 22.5169 18.6827C22.793 19.035 23.0881 19.3491 23.4404 19.6347C23.9354 20.0251 24.4971 20.2631 25.116 20.3488C25.6777 20.4249 26.2394 20.3964 26.782 20.2345C27.3247 20.0822 27.8102 19.8156 28.2387 19.4539C28.6861 19.073 29.0288 18.6161 29.2764 18.0829C29.5715 17.426 29.6953 16.7405 29.6096 16.0265C29.5239 15.2649 29.2383 14.5794 28.7528 13.9796C28.3148 13.437 27.7722 13.0371 27.1152 12.78C26.6678 12.6087 26.2013 12.5135 25.7253 12.504C24.7637 12.4944 23.9069 12.7991 23.1833 13.4465C22.8882 13.713 22.6216 13.9987 22.3741 14.3128C22.336 14.3604 22.2884 14.4176 22.2408 14.4747C22.1932 14.3985 22.1551 14.3319 22.117 14.2748C21.8124 13.7321 21.5077 13.1894 21.184 12.6563C20.8698 12.1231 20.5271 11.609 20.1558 11.1235C20.0797 11.0283 20.0511 10.9331 20.0511 10.8093C20.0511 8.20073 20.0511 5.86823 20.0511 3.25964C20.0511 3.19299 20.0606 3.12635 20.0606 3.05971C20.1082 3.05019 20.1368 3.04067 20.1653 3.04067C20.5938 3.02163 23.2404 3.03115 23.4118 3.05971C23.4213 3.08827 23.4308 3.12635 23.4308 3.16443C23.4308 3.2406 23.4308 3.32628 23.4308 3.40244C23.4308 5.23036 23.4308 6.77267 23.4213 8.60059V8.82908C23.4689 8.82908 23.5165 8.8386 23.5451 8.82908C23.8878 8.73387 24.2306 8.66723 24.5923 8.61963C24.8494 8.59107 25.116 8.56251 25.373 8.56251C25.6586 8.55299 25.9347 8.55299 26.2203 8.57203C28.391 8.74339 30.2094 9.65735 31.647 11.2949C32.4562 12.2088 33.0084 13.2656 33.313 14.4461C33.4844 15.0745 33.5606 15.7219 33.5701 16.3692C33.5701 17.0166 33.513 17.6545 33.3606 18.2829C33.1322 19.2349 32.7418 20.1203 32.1801 20.9295C31.4756 21.9482 30.5807 22.767 29.4953 23.3668C28.7147 23.8047 27.8864 24.0903 27.0105 24.2426C26.4393 24.3378 25.8681 24.3759 25.2873 24.3474C23.6593 24.2712 22.1932 23.738 20.927 22.7098C20.2796 22.1862 19.7179 21.5769 19.2133 20.9105C18.6421 20.1488 18.1375 19.3396 17.6805 18.5113C17.195 17.645 16.7189 16.7786 16.2334 15.9123C15.9002 15.322 15.5289 14.7508 15.11 14.2176C14.8339 13.8654 14.5197 13.5417 14.1675 13.2656C13.6343 12.8562 13.0345 12.6182 12.3586 12.542C11.9683 12.4944 11.5684 12.504 11.1781 12.5801C10.3022 12.742 9.56911 13.1418 8.96932 13.7987C8.42666 14.3985 8.09344 15.0935 7.9792 15.8932C7.86495 16.6644 7.9792 17.407 8.30289 18.1115C8.60754 18.7589 9.04548 19.2825 9.63575 19.6919C10.1499 20.0536 10.7211 20.2726 11.3399 20.3583C11.8826 20.4345 12.4252 20.4059 12.9489 20.2536C13.5106 20.0917 13.9866 19.7871 14.4055 19.3967C14.7006 19.1302 14.9577 18.8255 15.1957 18.5113C15.2623 18.4447 15.3004 18.3781 15.367 18.3305Z" fill="#0056D2"/>
<path fill-rule="evenodd" clip-rule="evenodd" d="M65.3207 16.5309C65.3112 17.721 65.1017 18.8634 64.6067 19.9487C63.6737 22.0242 62.1123 23.3761 59.9321 24.0235C59.0372 24.29 58.1233 24.3757 57.1903 24.3567C56.2858 24.3376 55.4004 24.1948 54.5531 23.8902C52.392 23.1095 50.9258 21.6148 50.1356 19.4632C49.8881 18.7968 49.7453 18.1018 49.6786 17.3877C49.631 16.9212 49.631 16.4643 49.6501 15.9978C49.7262 14.6744 50.069 13.4177 50.7449 12.2753C51.7351 10.6187 53.1631 9.52388 55.0101 8.98122C55.9336 8.71465 56.8761 8.61945 57.8376 8.65753C59.0277 8.70513 60.1606 8.9717 61.2174 9.52388C62.8644 10.3712 64.0164 11.6755 64.7209 13.3797C65.0065 14.0842 65.1874 14.8172 65.254 15.5789C65.2921 15.9026 65.3017 16.2167 65.3207 16.5309ZM53.3535 16.5119C53.3821 16.7784 53.3916 17.045 53.4297 17.3116C53.5059 17.8828 53.6772 18.4255 53.9533 18.9301C54.5055 19.9297 55.3243 20.5771 56.4381 20.8341C56.9808 20.9579 57.5235 20.9769 58.0757 20.9103C58.6088 20.8437 59.1039 20.6818 59.5704 20.4152C60.2654 20.0059 60.7699 19.4156 61.1031 18.6825C61.5316 17.74 61.6553 16.7594 61.484 15.7407C61.3602 14.9505 61.0555 14.2365 60.5605 13.6081C60.0559 12.9512 59.4085 12.4943 58.6183 12.2467C57.9804 12.0468 57.3331 12.0278 56.6666 12.142C55.9526 12.2658 55.3147 12.5704 54.7816 13.056C54.3722 13.4273 54.0676 13.8652 53.8295 14.3603C53.5154 15.0362 53.3821 15.7598 53.3535 16.5119Z" fill="#0056D2"/>
<path fill-rule="evenodd" clip-rule="evenodd" d="M89.4453 10.9616C90.0832 11.6566 90.5402 12.4658 90.8448 13.3512C91.0638 13.9891 91.1971 14.646 91.2637 15.3124C91.3113 15.7599 91.3304 16.2073 91.3304 16.6548V24.0902C91.3304 24.1664 91.3399 24.2521 91.3113 24.3282C91.2828 24.3378 91.2637 24.3473 91.2447 24.3473C90.0546 24.3473 88.8551 24.3473 87.665 24.3473C87.646 24.3473 87.6269 24.3378 87.5984 24.3282C87.5984 24.2616 87.5888 24.1854 87.5888 24.1188C87.5888 23.3762 87.5888 22.6336 87.5888 21.891C87.5888 20.0631 87.5888 18.2352 87.5888 16.4073C87.5888 15.7218 87.4651 15.0649 87.1795 14.4365C86.7796 13.5607 86.1322 12.9418 85.1992 12.6372C84.7708 12.4944 84.3233 12.4468 83.8664 12.4563C82.5906 12.4944 81.591 13.0466 80.8674 14.0843C80.458 14.6745 80.2296 15.3314 80.1344 16.0455C80.1058 16.2835 80.0963 16.531 80.0963 16.769V24.1093C80.0963 24.1854 80.1058 24.2711 80.0772 24.3568C79.8011 24.3758 76.5737 24.3663 76.4119 24.3473C76.4119 24.3092 76.4023 24.2711 76.3928 24.2426C76.3928 24.1854 76.3928 24.1378 76.3928 24.0807V9.55256C76.3928 9.46688 76.3928 9.38119 76.3928 9.29551C76.4785 9.25743 76.5452 9.27647 76.6213 9.27647H79.7059C79.7821 9.6192 79.7916 9.95242 79.8392 10.2761C79.8868 10.6093 79.9059 10.9425 79.963 11.2758C80.0487 11.2472 80.0963 11.1901 80.1439 11.1329C80.458 10.8378 80.7817 10.5617 81.134 10.3142C81.7909 9.83817 82.5049 9.4764 83.2856 9.25743C83.7045 9.14318 84.1234 9.08606 84.5518 9.0575C85.4372 9.0099 86.3036 9.13366 87.1414 9.43832C87.8173 9.68585 88.4266 10.0476 88.9693 10.5141" fill="#0056D2"/>
<path fill-rule="evenodd" clip-rule="evenodd" d="M36.7022 19.0349C36.7308 19.054 36.7498 19.0635 36.7593 19.0825C37.1211 19.4633 37.5495 19.7585 38.016 20.0155C38.9966 20.5582 40.0534 20.9009 41.1577 21.0723C41.51 21.1199 41.8623 21.1389 42.224 21.1199C42.681 21.0913 43.1285 20.9866 43.5379 20.7867C43.8044 20.6629 44.0329 20.4916 44.2328 20.2726C44.5661 19.8918 44.6803 19.4633 44.5756 18.9683C44.5185 18.7208 44.3852 18.5303 44.1948 18.3685C44.052 18.2543 43.8901 18.1686 43.7283 18.1019C43.4331 17.9877 43.1285 17.9115 42.8143 17.8639C42.4144 17.7973 42.0051 17.7687 41.5957 17.7402C40.5294 17.6545 39.4822 17.4736 38.473 17.1023C37.8446 16.8643 37.2544 16.5501 36.7403 16.1122C35.9882 15.4648 35.5502 14.646 35.4265 13.6559C35.3408 12.9704 35.3979 12.2945 35.6264 11.6376C35.8644 10.9521 36.2833 10.3809 36.8355 9.91437C37.3401 9.48596 37.9018 9.1813 38.5111 8.94329C39.1489 8.69576 39.8154 8.54343 40.4913 8.44823C41.2529 8.34351 42.0146 8.35303 42.7762 8.40063C43.4426 8.44823 44.09 8.55295 44.7279 8.73384C45.7752 9.0385 46.6891 9.57164 47.5174 10.2857C47.5364 10.3047 47.5555 10.3238 47.565 10.3333C47.565 10.3523 47.565 10.3523 47.565 10.3618C47.565 10.3714 47.565 10.3714 47.5555 10.3809C46.9176 11.133 46.2797 11.8851 45.6419 12.6372C45.6133 12.6753 45.5847 12.7134 45.5467 12.7419C45.5371 12.7515 45.5276 12.7515 45.4991 12.7705C45.461 12.7419 45.4229 12.7134 45.3848 12.6848C44.785 12.1517 44.09 11.7899 43.2998 11.609C42.8905 11.5138 42.4811 11.4662 42.0622 11.4567C41.6718 11.4472 41.272 11.4472 40.8817 11.5043C40.558 11.5519 40.2533 11.6185 39.9487 11.7423C39.7963 11.8089 39.644 11.8946 39.5107 11.9898C38.8443 12.4849 38.9204 13.4274 39.425 13.8749C39.6059 14.0367 39.8058 14.151 40.0248 14.2366C40.3866 14.389 40.7674 14.4747 41.1482 14.5127C41.5957 14.5603 42.0431 14.5984 42.4906 14.6365C43.4046 14.7222 44.309 14.865 45.1849 15.1601C45.6704 15.322 46.1274 15.5409 46.5558 15.8266C47.4603 16.4454 47.9934 17.3022 48.1933 18.378C48.279 18.8445 48.3076 19.3205 48.2695 19.7966C48.1743 20.9105 47.7268 21.8625 46.9271 22.6432C46.3464 23.2049 45.6704 23.5952 44.9183 23.8618C44.309 24.0807 43.6807 24.214 43.0428 24.2902C42.3097 24.3759 41.5671 24.3759 40.8341 24.3283C40.1391 24.2902 39.4441 24.195 38.7681 24.0236C37.4067 23.6714 36.2357 22.9954 35.217 22.0339C35.1123 21.9291 35.0076 21.8244 34.9028 21.7197C34.8933 21.7102 34.8838 21.6911 34.8743 21.6721C34.96 21.5293 36.5213 19.2444 36.7022 19.0349Z" fill="#0056D2"/>
<path fill-rule="evenodd" clip-rule="evenodd" d="M70.2142 3.01204V24.3378C70.1571 24.3473 70.119 24.3473 70.0809 24.3568H66.6631C66.625 24.3568 66.5869 24.3568 66.5393 24.3473C66.5298 24.2997 66.5203 24.2616 66.5203 24.233C66.5203 24.1759 66.5203 24.1283 66.5203 24.0712V3.05012C66.5774 2.98348 66.6345 3.00252 66.6821 3.00252C67.082 3.00252 67.4723 3.00252 67.8722 3.00252H69.9857C70.0428 3.01204 70.119 3.01204 70.2142 3.01204Z" fill="#0056D2"/>
<path fill-rule="evenodd" clip-rule="evenodd" d="M71.4329 9.2575C71.6329 9.22894 74.965 9.22894 75.1459 9.2575C75.1554 9.29559 75.1649 9.33367 75.1649 9.37175C75.1649 9.42887 75.1649 9.47648 75.1649 9.5336V24.0903C75.1649 24.176 75.1745 24.2617 75.1554 24.3474C75.1269 24.3569 75.1078 24.3664 75.0888 24.3664H71.4615C71.452 24.3188 71.4425 24.2902 71.4329 24.2522C71.4329 24.195 71.4329 24.1474 71.4329 24.0903V9.52408C71.4234 9.43839 71.4329 9.35271 71.4329 9.2575Z" fill="#0056D2"/>
<path fill-rule="evenodd" clip-rule="evenodd" d="M75.1363 6.67744C74.9364 6.706 71.6423 6.706 71.4614 6.67744C71.4519 6.63936 71.4424 6.59176 71.4424 6.54415C71.4424 6.27758 71.4424 6.02053 71.4424 5.76348V3.25009C71.4424 3.17393 71.4424 3.10729 71.4519 3.03112C71.5281 3.00256 71.6042 3.01208 71.6709 3.01208C72.5468 3.01208 73.4131 3.01208 74.2795 3.01208H75.0982C75.1458 3.08825 75.1268 3.16441 75.1268 3.24057C75.1268 4.0022 75.1268 4.76384 75.1268 5.53499L75.1363 6.67744Z" fill="#0056D2"/>
<path d="M93.6535 6.64886C94.0534 6.64886 94.4437 6.75359 94.8246 6.95352C95.2054 7.16297 95.5005 7.44858 95.71 7.8294C95.9194 8.21021 96.0241 8.61007 96.0241 9.02897C96.0241 9.44787 95.9194 9.8382 95.71 10.2095C95.5005 10.5903 95.2054 10.8854 94.8341 11.0949C94.4533 11.3043 94.0629 11.4091 93.644 11.4091C93.2251 11.4091 92.8348 11.3043 92.454 11.0949C92.0731 10.8854 91.7875 10.5903 91.5686 10.2095C91.3591 9.82868 91.2544 9.43835 91.2544 9.02897C91.2544 8.61959 91.3591 8.21973 91.5781 7.8294C91.7971 7.43906 92.0922 7.15345 92.473 6.95352C92.8538 6.75359 93.2537 6.64886 93.6535 6.64886ZM93.6535 7.04872C93.3203 7.04872 92.9966 7.13441 92.6729 7.30577C92.3588 7.47714 92.1112 7.72467 91.9303 8.03885C91.7495 8.36254 91.6638 8.68623 91.6638 9.03849C91.6638 9.39074 91.7495 9.71444 91.9303 10.0286C92.1017 10.3428 92.3492 10.5903 92.6634 10.7617C92.9776 10.9331 93.3108 11.0283 93.6535 11.0283C93.9963 11.0283 94.3295 10.9426 94.6437 10.7617C94.9578 10.5903 95.2054 10.3428 95.3767 10.0286C95.5481 9.71444 95.6433 9.38122 95.6433 9.03849C95.6433 8.69575 95.5576 8.36254 95.3767 8.03885C95.1958 7.71515 94.9483 7.47714 94.6341 7.30577C94.3104 7.13441 93.9868 7.04872 93.6535 7.04872ZM92.6063 10.3523V7.79131H93.4822C93.7868 7.79131 94.0058 7.81036 94.1391 7.86748C94.2724 7.91508 94.3771 8.00076 94.4628 8.11501C94.5389 8.22925 94.5865 8.36254 94.5865 8.4863C94.5865 8.67671 94.5199 8.83856 94.3866 8.97184C94.2533 9.11465 94.0724 9.19082 93.8535 9.20034C93.9487 9.23842 94.0153 9.28602 94.0724 9.33362C94.1772 9.43835 94.3009 9.60019 94.4533 9.8382L94.7674 10.3428H94.2628L94.0344 9.94293C93.8535 9.62875 93.7107 9.42883 93.6059 9.34314C93.5298 9.28602 93.4155 9.25746 93.2727 9.25746H93.0252V10.3428L92.6063 10.3523ZM93.0157 8.9052H93.5203C93.7583 8.9052 93.9201 8.86712 94.0153 8.80048C94.101 8.72432 94.1486 8.62911 94.1486 8.51487C94.1486 8.4387 94.1296 8.37206 94.082 8.31494C94.0344 8.25781 93.9772 8.21021 93.9106 8.18165C93.8439 8.15309 93.7011 8.13405 93.5012 8.13405H93.0347L93.0157 8.9052Z" fill="#0056D2"/>
</svg>
