<svg width="15" height="15" viewBox="0 0 15 15" fill="none" xmlns="http://www.w3.org/2000/svg">
<g clip-path="url(#clip0_613_3347)">
<path d="M8.0175 3.75062C8.1173 3.46784 8.14781 3.16525 8.10648 2.86824C8.06516 2.57123 7.9532 2.28846 7.78 2.04367C7.60679 1.79887 7.3774 1.59919 7.11108 1.46138C6.84475 1.32356 6.54925 1.25164 6.24937 1.25164C5.9495 1.25164 5.654 1.32356 5.38767 1.46138C5.12135 1.59919 4.89196 1.79887 4.71875 2.04367C4.54555 2.28846 4.43359 2.57123 4.39227 2.86824C4.35094 3.16525 4.38145 3.46784 4.48125 3.75062C3.05312 3.75562 2.29125 3.80687 1.79875 4.29937C1.30625 4.79187 1.255 5.55375 1.25 6.98125C1.53273 6.88179 1.83518 6.85156 2.13201 6.89309C2.42883 6.93461 2.71137 7.04669 2.95595 7.21992C3.20053 7.39316 3.40002 7.62249 3.53769 7.88872C3.67536 8.15494 3.74721 8.45029 3.74721 8.75C3.74721 9.04971 3.67536 9.34506 3.53769 9.61128C3.40002 9.87751 3.20053 10.1068 2.95595 10.2801C2.71137 10.4533 2.42883 10.5654 2.13201 10.6069C1.83518 10.6484 1.53273 10.6182 1.25 10.5188C1.255 11.9463 1.30625 12.7081 1.79875 13.2006C2.29125 13.6931 3.05313 13.7444 4.48063 13.7494C4.38117 13.4666 4.35093 13.1642 4.39246 12.8674C4.43399 12.5705 4.54606 12.288 4.7193 12.0434C4.89253 11.7988 5.12187 11.5994 5.38809 11.4617C5.65431 11.324 5.94966 11.2522 6.24937 11.2522C6.54909 11.2522 6.84444 11.324 7.11066 11.4617C7.37688 11.5994 7.60622 11.7988 7.77945 12.0434C7.95268 12.288 8.06476 12.5705 8.10629 12.8674C8.14782 13.1642 8.11758 13.4666 8.01813 13.7494C9.44563 13.7444 10.2075 13.6931 10.7 13.2006C11.1925 12.7081 11.2437 11.9463 11.2487 10.5181C11.5315 10.6179 11.8341 10.6484 12.1311 10.6071C12.4281 10.5658 12.7109 10.4538 12.9557 10.2806C13.2005 10.1074 13.4002 9.87803 13.538 9.6117C13.6758 9.34537 13.7477 9.04987 13.7477 8.75C13.7477 8.45013 13.6758 8.15463 13.538 7.8883C13.4002 7.62197 13.2005 7.39258 12.9557 7.21938C12.7109 7.04618 12.4281 6.93422 12.1311 6.89289C11.8341 6.85156 11.5315 6.88208 11.2487 6.98187C11.2437 5.55375 11.1925 4.79187 10.7 4.29937C10.2075 3.80625 9.44563 3.75562 8.0175 3.75062Z" stroke="black" stroke-width="0.9375" stroke-linecap="round" stroke-linejoin="round"/>
</g>
<defs>
<clipPath id="clip0_613_3347">
<rect width="15" height="15" fill="white"/>
</clipPath>
</defs>
</svg>
