<svg width="15" height="15" viewBox="0 0 15 15" fill="none" xmlns="http://www.w3.org/2000/svg">
<path d="M7.5 10.745L9.5675 8.67813L9.125 8.23563L7.8125 9.54813V6.61062H7.1875V9.54813L5.875 8.23563L5.4325 8.67813L7.5 10.745ZM3.125 4.88V11.4906C3.125 11.6027 3.16104 11.6948 3.23312 11.7669C3.30521 11.839 3.3975 11.875 3.51 11.875H11.4906C11.6027 11.875 11.6948 11.839 11.7669 11.7669C11.839 11.6948 11.875 11.6027 11.875 11.4906V4.88H3.125ZM3.60625 12.5C3.32625 12.5 3.07187 12.3856 2.84312 12.1569C2.61437 11.9281 2.5 11.674 2.5 11.3944V4.67875C2.5 4.55708 2.51937 4.4425 2.55812 4.335C2.59687 4.2275 2.65521 4.12854 2.73313 4.03813L3.70688 2.86938C3.79729 2.74729 3.91042 2.65521 4.04625 2.59313C4.18208 2.53104 4.32771 2.5 4.48312 2.5H10.4931C10.6481 2.5 10.7956 2.53104 10.9356 2.59313C11.0756 2.65521 11.1908 2.74708 11.2812 2.86875L12.2669 4.0625C12.3448 4.15292 12.4031 4.25396 12.4419 4.36563C12.4806 4.47688 12.5 4.59354 12.5 4.71563V11.3937C12.5 11.6733 12.3856 11.9275 12.1569 12.1562C11.9281 12.385 11.674 12.4994 11.3944 12.4994L3.60625 12.5ZM3.3625 4.255H11.625L10.7938 3.25625C10.7533 3.21625 10.7071 3.18438 10.655 3.16063C10.6029 3.13688 10.5487 3.125 10.4925 3.125H4.495C4.43917 3.125 4.385 3.13708 4.3325 3.16125C4.28 3.18542 4.23417 3.2175 4.195 3.2575L3.3625 4.255Z" fill="black"/>
</svg>
