<svg width="12" height="12" viewBox="0 0 12 12" fill="none" xmlns="http://www.w3.org/2000/svg">
<path d="M3.69 10.505C3.74806 10.5632 3.81702 10.6094 3.89296 10.6409C3.96889 10.6724 4.05029 10.6886 4.1325 10.6886C4.21471 10.6886 4.29611 10.6724 4.37204 10.6409C4.44797 10.6094 4.51694 10.5632 4.575 10.505L8.73 6.35001C8.77635 6.30375 8.81312 6.24881 8.83821 6.18832C8.86331 6.12784 8.87622 6.063 8.87622 5.99751C8.87622 5.93203 8.86331 5.86719 8.83821 5.8067C8.81312 5.74621 8.77635 5.69127 8.73 5.64501L4.575 1.49001C4.33 1.24501 3.935 1.24501 3.69 1.49001C3.445 1.73501 3.445 2.13001 3.69 2.37501L7.31 6.00001L3.685 9.62501C3.445 9.86501 3.445 10.265 3.69 10.505Z" fill="black"/>
</svg>
