<svg width="15" height="15" viewBox="0 0 15 15" fill="none" xmlns="http://www.w3.org/2000/svg">
<g clip-path="url(#clip0_613_3313)">
<path d="M2.5 9.6875C2.16848 9.6875 1.85054 9.5558 1.61612 9.32138C1.3817 9.08696 1.25 8.76902 1.25 8.4375C1.25 8.10598 1.3817 7.78804 1.61612 7.55362C1.85054 7.3192 2.16848 7.1875 2.5 7.1875M12.5 9.6875C12.8315 9.6875 13.1495 9.5558 13.3839 9.32138C13.6183 9.08696 13.75 8.76902 13.75 8.4375C13.75 8.10598 13.6183 7.78804 13.3839 7.55362C13.1495 7.3192 12.8315 7.1875 12.5 7.1875M4.375 4.375V2.5M10.625 4.375V2.5" stroke="black" stroke-linecap="round" stroke-linejoin="round"/>
<path d="M4.375 2.5C4.72018 2.5 5 2.22018 5 1.875C5 1.52982 4.72018 1.25 4.375 1.25C4.02982 1.25 3.75 1.52982 3.75 1.875C3.75 2.22018 4.02982 2.5 4.375 2.5Z" stroke="black" stroke-linecap="round" stroke-linejoin="round"/>
<path d="M10.625 2.5C10.9702 2.5 11.25 2.22018 11.25 1.875C11.25 1.52982 10.9702 1.25 10.625 1.25C10.2798 1.25 10 1.52982 10 1.875C10 2.22018 10.2798 2.5 10.625 2.5Z" stroke="black" stroke-linecap="round" stroke-linejoin="round"/>
<path d="M8.4375 4.375H6.5625C4.795 4.375 3.91063 4.375 3.36188 4.94312C2.81313 5.51125 2.8125 6.42562 2.8125 8.25437C2.8125 10.0831 2.8125 10.9975 3.36188 11.5656C3.91063 12.1337 4.795 12.1337 6.5625 12.1337H7.20312C7.69812 12.1337 7.8725 12.2356 8.21375 12.6069C8.59063 13.0175 9.17438 13.5656 9.7025 13.6931C10.4531 13.8744 10.5375 13.6237 10.37 12.9081C10.3225 12.7044 10.2031 12.3787 10.3287 12.1887C10.3994 12.0825 10.5163 12.0562 10.7506 12.0037C11.12 11.9212 11.425 11.7862 11.6381 11.5656C12.1875 10.9969 12.1875 10.0831 12.1875 8.25437C12.1875 6.42562 12.1875 5.51125 11.6381 4.94312C11.0894 4.375 10.205 4.375 8.4375 4.375Z" stroke="black" stroke-linecap="round" stroke-linejoin="round"/>
<path d="M5.9375 9.375C6.29375 9.75437 6.86125 10 7.5 10C8.13875 10 8.70625 9.75437 9.0625 9.375M5.63062 6.875H5.625M9.38062 6.875H9.375" stroke="black" stroke-linecap="round" stroke-linejoin="round"/>
</g>
<defs>
<clipPath id="clip0_613_3313">
<rect width="15" height="15" fill="white"/>
</clipPath>
</defs>
</svg>
