<svg width="15" height="15" viewBox="0 0 15 15" fill="none" xmlns="http://www.w3.org/2000/svg">
<path d="M7.5 2.25C8.18944 2.25 8.87213 2.3858 9.50909 2.64963C10.146 2.91347 10.7248 3.30018 11.2123 3.78769C11.6998 4.2752 12.0865 4.85395 12.3504 5.49091C12.6142 6.12787 12.75 6.81056 12.75 7.5C12.75 8.18944 12.6142 8.87213 12.3504 9.50909C12.0865 10.146 11.6998 10.7248 11.2123 11.2123C10.7248 11.6998 10.146 12.0865 9.50909 12.3504C8.87213 12.6142 8.18944 12.75 7.5 12.75V2.25ZM7.5 1.5C5.9087 1.5 4.38258 2.13214 3.25736 3.25736C2.13214 4.38258 1.5 5.9087 1.5 7.5C1.5 9.0913 2.13214 10.6174 3.25736 11.7426C4.38258 12.8679 5.9087 13.5 7.5 13.5C9.0913 13.5 10.6174 12.8679 11.7426 11.7426C12.8679 10.6174 13.5 9.0913 13.5 7.5C13.5 5.9087 12.8679 4.38258 11.7426 3.25736C10.6174 2.13214 9.0913 1.5 7.5 1.5Z" fill="black"/>
</svg>
