<svg width="18" height="18" viewBox="0 0 18 18" fill="none" xmlns="http://www.w3.org/2000/svg">
<path d="M6 7.5C6 7.30108 6.07902 7.11032 6.21967 6.96967C6.36032 6.82901 6.55109 6.75 6.75 6.75H11.25C11.4489 6.75 11.6397 6.82901 11.7803 6.96967C11.921 7.11032 12 7.30108 12 7.5C12 7.69891 11.921 7.88968 11.7803 8.03033C11.6397 8.17098 11.4489 8.25 11.25 8.25H6.75C6.55109 8.25 6.36032 8.17098 6.21967 8.03033C6.07902 7.88968 6 7.69891 6 7.5ZM6.75 9.75C6.55109 9.75 6.36032 9.82901 6.21967 9.96967C6.07902 10.1103 6 10.3011 6 10.5C6 10.6989 6.07902 10.8897 6.21967 11.0303C6.36032 11.171 6.55109 11.25 6.75 11.25H9.75C9.94891 11.25 10.1397 11.171 10.2803 11.0303C10.421 10.8897 10.5 10.6989 10.5 10.5C10.5 10.3011 10.421 10.1103 10.2803 9.96967C10.1397 9.82901 9.94891 9.75 9.75 9.75H6.75ZM-8.9989e-07 9C0.000381836 7.01857 0.654637 5.09264 1.86127 3.52099C3.06791 1.94933 4.75947 0.819804 6.67356 0.307617C8.58765 -0.204569 10.6173 -0.0707797 12.4476 0.68823C14.2778 1.44724 15.8065 2.78904 16.7964 4.50549C17.7863 6.22194 18.1821 8.21708 17.9224 10.1814C17.6626 12.1457 16.7619 13.9695 15.36 15.3697C13.958 16.7699 12.1332 17.6683 10.1685 17.9256C8.20385 18.1828 6.2092 17.7845 4.494 16.7925L0.986999 17.9625C0.857433 18.0058 0.718512 18.0128 0.585231 17.9829C0.451949 17.953 0.329368 17.8872 0.230718 17.7928C0.132067 17.6983 0.0610933 17.5786 0.0254558 17.4468C-0.0101818 17.3149 -0.00912945 17.1758 0.0284992 17.0445L1.0965 13.308C0.376529 11.9863 -0.000470169 10.5051 -8.9989e-07 9ZM9 1.5C7.67577 1.49991 6.37513 1.85044 5.23028 2.51596C4.08543 3.18147 3.1372 4.13823 2.48198 5.289C1.82675 6.43976 1.48788 7.74349 1.49983 9.06767C1.51178 10.3918 1.87411 11.6892 2.55 12.828C2.602 12.916 2.63548 13.0136 2.64837 13.115C2.66127 13.2164 2.65332 13.3193 2.625 13.4175L1.8615 16.0875L4.3485 15.2595C4.45412 15.2242 4.56627 15.213 4.67679 15.2265C4.78732 15.2399 4.89346 15.2779 4.9875 15.3375C5.9704 15.9595 7.08452 16.3444 8.24179 16.4618C9.39906 16.5791 10.5678 16.4256 11.6555 16.0135C12.7432 15.6014 13.7202 14.9419 14.5092 14.0872C15.2982 13.2324 15.8776 12.2059 16.2015 11.0887C16.5255 9.97157 16.5851 8.79435 16.3758 7.65015C16.1664 6.50594 15.6938 5.42611 14.9953 4.49601C14.2967 3.56592 13.3914 2.81105 12.3509 2.29107C11.3104 1.7711 10.1632 1.50027 9 1.5Z" fill="black" fill-opacity="0.6"/>
</svg>
