<svg width="15" height="15" viewBox="0 0 15 15" fill="none" xmlns="http://www.w3.org/2000/svg">
<g clip-path="url(#clip0_613_1559)">
<path d="M1.64062 0.9375H9.60938C10.515 0.9375 11.25 1.6725 11.25 2.57813V7.73438C11.25 8.1695 11.0771 8.5868 10.7695 8.89447C10.4618 9.20215 10.0445 9.375 9.60938 9.375H6.61969L4.20656 11.7872C4.01536 11.9777 3.77205 12.1073 3.5073 12.1597C3.24255 12.2121 2.96821 12.185 2.71886 12.0817C2.46951 11.9784 2.25631 11.8036 2.10614 11.5794C1.95596 11.3551 1.87554 11.0915 1.875 10.8216V9.375H1.64062C1.2055 9.375 0.788205 9.20215 0.480528 8.89447C0.172851 8.5868 0 8.1695 0 7.73438L0 2.57813C0 1.6725 0.735 0.9375 1.64062 0.9375ZM1.40625 2.57813V7.73438C1.40625 7.86375 1.51125 7.96875 1.64062 7.96875H2.57812C2.76461 7.96875 2.94345 8.04283 3.07531 8.17469C3.20717 8.30655 3.28125 8.48539 3.28125 8.67188V10.725L5.83125 8.175C5.96299 8.0431 6.14171 7.96891 6.32812 7.96875H9.60938C9.67154 7.96875 9.73115 7.94406 9.7751 7.9001C9.81906 7.85615 9.84375 7.79654 9.84375 7.73438V2.57813C9.84375 2.51596 9.81906 2.45635 9.7751 2.4124C9.73115 2.36844 9.67154 2.34375 9.60938 2.34375H1.64062C1.57846 2.34375 1.51885 2.36844 1.4749 2.4124C1.43094 2.45635 1.40625 2.51596 1.40625 2.57813ZM13.5938 4.45313C13.5938 4.39096 13.5691 4.33135 13.5251 4.2874C13.4811 4.24344 13.4215 4.21875 13.3594 4.21875H12.8906C12.7041 4.21875 12.5253 4.14467 12.3934 4.01281C12.2616 3.88095 12.1875 3.70211 12.1875 3.51563C12.1875 3.32914 12.2616 3.1503 12.3934 3.01844C12.5253 2.88658 12.7041 2.8125 12.8906 2.8125H13.3594C14.265 2.8125 15 3.5475 15 4.45313V9.60938C15 10.0445 14.8271 10.4618 14.5195 10.7695C14.2118 11.0772 13.7945 11.25 13.3594 11.25H13.125V12.6966C13.1245 12.9665 13.044 13.2301 12.8939 13.4544C12.7437 13.6786 12.5305 13.8534 12.2811 13.9567C12.0318 14.06 11.7575 14.0871 11.4927 14.0347C11.228 13.9823 10.9846 13.8527 10.7934 13.6622L8.64375 11.5125C8.5512 11.4266 8.48354 11.3172 8.4479 11.1961C8.41226 11.0749 8.40996 10.9464 8.44125 10.824C8.47254 10.7016 8.53625 10.59 8.62568 10.5008C8.7151 10.4116 8.82693 10.3482 8.94937 10.3172C9.07161 10.286 9.19999 10.2882 9.32106 10.3237C9.44213 10.3591 9.55143 10.4265 9.6375 10.5188L11.7188 12.6V10.5469C11.7188 10.3604 11.7928 10.1816 11.9247 10.0497C12.0566 9.91783 12.2354 9.84375 12.4219 9.84375H13.3594C13.4215 9.84375 13.4811 9.81906 13.5251 9.7751C13.5691 9.73115 13.5938 9.67154 13.5938 9.60938V4.45313Z" fill="#172032"/>
</g>
<defs>
<clipPath id="clip0_613_1559">
<rect width="15" height="15" fill="white"/>
</clipPath>
</defs>
</svg>
