<svg width="15" height="15" viewBox="0 0 15 15" fill="none" xmlns="http://www.w3.org/2000/svg">
<path d="M9.375 1.875V4.375C9.375 4.54076 9.44085 4.69973 9.55806 4.81694C9.67527 4.93415 9.83424 5 10 5H12.5" stroke="#172032" stroke-width="1.25" stroke-linecap="round" stroke-linejoin="round"/>
<path d="M11.25 10.625H6.875C6.54348 10.625 6.22554 10.4933 5.99112 10.2589C5.7567 10.0245 5.625 9.70652 5.625 9.375V3.125C5.625 2.79348 5.7567 2.47554 5.99112 2.24112C6.22554 2.0067 6.54348 1.875 6.875 1.875H9.375L12.5 5V9.375C12.5 9.70652 12.3683 10.0245 12.1339 10.2589C11.8995 10.4933 11.5815 10.625 11.25 10.625Z" stroke="#172032" stroke-width="1.25" stroke-linecap="round" stroke-linejoin="round"/>
<path d="M10 10.625V11.875C10 12.2065 9.8683 12.5245 9.63388 12.7589C9.39946 12.9933 9.08152 13.125 8.75 13.125H4.375C4.04348 13.125 3.72554 12.9933 3.49112 12.7589C3.2567 12.5245 3.125 12.2065 3.125 11.875V5.625C3.125 5.29348 3.2567 4.97554 3.49112 4.74112C3.72554 4.5067 4.04348 4.375 4.375 4.375H5.625" stroke="#172032" stroke-width="1.25" stroke-linecap="round" stroke-linejoin="round"/>
</svg>
