<svg width="15" height="15" viewBox="0 0 15 15" fill="none" xmlns="http://www.w3.org/2000/svg">
<path d="M5.53562 7.81625C3.98124 6.65375 2.87249 5.375 2.26687 4.65625C2.07937 4.43375 2.01812 4.27063 1.98124 3.98375C1.85499 3.00125 1.79187 2.51 2.07999 2.1925C2.36812 1.875 2.87749 1.875 3.89624 1.875H11.1037C12.1225 1.875 12.6319 1.875 12.92 2.19187C13.2081 2.50937 13.145 3.00063 13.0187 3.98313C12.9812 4.27 12.92 4.43312 12.7331 4.65562C12.1269 5.37562 11.0162 6.65687 9.45812 7.82125C9.38607 7.87731 9.32651 7.94779 9.28325 8.02818C9.23998 8.10858 9.21397 8.19711 9.20687 8.28812C9.05249 9.995 8.90999 10.93 8.82124 11.4025C8.67812 12.1662 7.59624 12.6256 7.01624 13.035C6.67124 13.2788 6.25249 12.9887 6.20812 12.6112C6.04216 11.1728 5.90173 9.73154 5.78687 8.28812C5.78045 8.19624 5.75476 8.10674 5.71147 8.02544C5.66818 7.94414 5.60827 7.87287 5.53562 7.81625Z" stroke="black" stroke-linecap="round" stroke-linejoin="round"/>
</svg>
