<svg width="15" height="15" viewBox="0 0 15 15" fill="none" xmlns="http://www.w3.org/2000/svg">
<path d="M2.49999 2.5L12.5 12.5M10.3125 10.4725C9.46687 10.9281 8.51124 11.25 7.49999 11.25C5.29374 11.25 3.35374 9.7175 2.24187 8.61188C1.94812 8.32 1.80124 8.17437 1.70812 7.8875C1.64124 7.68312 1.64124 7.31688 1.70812 7.1125C1.80187 6.82563 1.94874 6.67938 2.24249 6.3875C2.80312 5.83 3.57374 5.165 4.48249 4.64188M12.1875 9.14625C12.3956 8.96312 12.5862 8.7825 12.7575 8.6125L12.7594 8.61063C13.0519 8.31938 13.1987 8.17313 13.2919 7.88813C13.3587 7.68375 13.3587 7.31688 13.2919 7.1125C13.1981 6.82625 13.0519 6.68 12.7581 6.38812C11.6456 5.2825 9.70687 3.75 7.49999 3.75C7.28874 3.75 7.08062 3.76375 6.87499 3.79M8.32687 8.4375C8.08478 8.65127 7.76935 8.76305 7.44668 8.7494C7.12401 8.73576 6.81914 8.59776 6.59596 8.36432C6.37278 8.13088 6.24862 7.82012 6.24948 7.49716C6.25035 7.1742 6.37619 6.86411 6.60062 6.63188" stroke="black" stroke-linecap="round" stroke-linejoin="round"/>
</svg>
