<svg width="100" height="35" viewBox="0 0 100 35" fill="none" xmlns="http://www.w3.org/2000/svg">
<path d="M8.97897 27.28V30.5265H8.65527V27.28H8.97897ZM11.7875 27.9369C12.0921 27.9369 12.3397 28.0321 12.5301 28.2225C12.7205 28.4129 12.8157 28.6795 12.8157 29.0413V30.5265H12.5015V29.0794C12.5015 28.8033 12.4349 28.5938 12.2921 28.451C12.1493 28.3082 11.9684 28.232 11.7304 28.232C11.4924 28.232 11.2924 28.3082 11.1496 28.4605C11.0068 28.6129 10.9307 28.8413 10.9307 29.146V30.5265H10.607V27.994H10.9307V28.4224C11.0163 28.2701 11.1306 28.1464 11.2829 28.0702C11.4257 27.9845 11.5971 27.9464 11.7875 27.9369ZM15.4243 28.2606H14.834V30.5265H14.5103V28.2606H14.1581V27.9845H14.5103V27.8036C14.5103 27.5275 14.577 27.3276 14.7198 27.1943C14.8626 27.061 15.0911 27.0039 15.4053 27.0039V27.28C15.1958 27.28 15.0435 27.3181 14.9578 27.4038C14.8721 27.4894 14.834 27.6227 14.834 27.8036V27.9845H15.4243V28.2606ZM16.9761 27.5085C16.9095 27.5085 16.8524 27.4894 16.8048 27.4418C16.7572 27.3942 16.7381 27.3371 16.7381 27.2705C16.7381 27.2038 16.7572 27.1467 16.8048 27.0991C16.8524 27.0515 16.9095 27.0325 16.9761 27.0325C17.0428 27.0325 17.0999 27.0515 17.1475 27.0991C17.1951 27.1467 17.2141 27.2038 17.2141 27.2705C17.2141 27.3371 17.1951 27.3942 17.1475 27.4418C17.0999 27.4894 17.0428 27.5085 16.9761 27.5085ZM17.138 27.9845V30.5169H16.8143V27.9845H17.138ZM19.9465 27.9369C20.2511 27.9369 20.4987 28.0321 20.6891 28.2225C20.8795 28.4129 20.9747 28.6795 20.9747 29.0413V30.5265H20.651V29.0794C20.651 28.8033 20.5844 28.5938 20.4416 28.451C20.2987 28.3082 20.1179 28.232 19.8799 28.232C19.6418 28.232 19.4419 28.3082 19.2991 28.4605C19.1563 28.6129 19.0801 28.8413 19.0801 29.146V30.5265H18.7564V27.994H19.0801V28.4224C19.1658 28.2701 19.2801 28.1464 19.4324 28.0702C19.5847 27.9845 19.7561 27.9369 19.9465 27.9369ZM22.7455 27.5085C22.6789 27.5085 22.6217 27.4894 22.5741 27.4418C22.5265 27.3942 22.5075 27.3371 22.5075 27.2705C22.5075 27.2038 22.5265 27.1467 22.5741 27.0991C22.6217 27.0515 22.6789 27.0325 22.7455 27.0325C22.8121 27.0325 22.8693 27.0515 22.9169 27.0991C22.9645 27.1467 22.9835 27.2038 22.9835 27.2705C22.9835 27.3371 22.9645 27.3942 22.9169 27.4418C22.8693 27.4894 22.8121 27.5085 22.7455 27.5085ZM22.9073 27.9845V30.5169H22.5837V27.9845H22.9073ZM24.9447 28.2606V29.8315C24.9447 29.9838 24.9733 30.098 25.0304 30.1552C25.0875 30.2123 25.1922 30.2408 25.3446 30.2408H25.6397V30.5169H25.2875C25.059 30.5169 24.8876 30.4598 24.7733 30.3551C24.6591 30.2504 24.602 30.0695 24.602 29.8315V28.2606H24.2497V27.9845H24.602V27.3466H24.9352V27.9845H25.6302V28.2606H24.9447ZM29.3527 29.127C29.3527 29.2412 29.3527 29.3269 29.3432 29.384H27.2391C27.2487 29.5744 27.2963 29.7363 27.3819 29.8791C27.4676 30.0124 27.5724 30.1171 27.7152 30.1837C27.8484 30.2504 28.0008 30.2884 28.1626 30.2884C28.3721 30.2884 28.553 30.2408 28.6958 30.1361C28.8386 30.0314 28.9338 29.8981 28.9814 29.7267H29.3241C29.267 29.9743 29.1337 30.1742 28.9243 30.3361C28.7243 30.4884 28.4673 30.5741 28.1626 30.5741C27.9246 30.5741 27.7056 30.5169 27.5247 30.4122C27.3439 30.3075 27.1915 30.1552 27.0773 29.9552C26.9726 29.7553 26.9154 29.5268 26.9154 29.2698C26.9154 29.0127 26.963 28.7747 27.0773 28.5748C27.182 28.3748 27.3248 28.2225 27.5152 28.1178C27.7056 28.0131 27.9151 27.9559 28.1626 27.9559C28.4102 27.9559 28.6196 28.0036 28.8005 28.1178C28.9814 28.2225 29.1242 28.3653 29.2194 28.5462C29.3051 28.7081 29.3527 28.908 29.3527 29.127ZM29.029 29.1174C29.029 28.927 28.9909 28.7652 28.9147 28.6319C28.8386 28.4986 28.7243 28.3939 28.591 28.3272C28.4578 28.2606 28.3054 28.2225 28.1436 28.2225C27.9056 28.2225 27.6961 28.2987 27.5247 28.451C27.3534 28.6033 27.2582 28.8223 27.2391 29.1079L29.029 29.1174ZM33.951 27.28C34.3128 27.28 34.6175 27.3466 34.8745 27.4704C35.1316 27.6037 35.3315 27.7846 35.4648 28.0321C35.5981 28.2796 35.6647 28.5653 35.6647 28.908C35.6647 29.2507 35.5981 29.5268 35.4648 29.7743C35.3315 30.0219 35.1316 30.2028 34.8745 30.3361C34.6175 30.4693 34.3128 30.5265 33.951 30.5265H32.9895V27.28H33.951ZM33.951 30.2504C34.408 30.2504 34.7508 30.1361 34.9888 29.8981C35.2268 29.6601 35.341 29.3269 35.341 28.908C35.341 28.4891 35.2268 28.1464 34.9888 27.9083C34.7508 27.6703 34.408 27.5466 33.951 27.5466H33.3132V30.2504H33.951ZM37.3117 27.5085C37.2451 27.5085 37.188 27.4894 37.1404 27.4418C37.0928 27.3942 37.0737 27.3371 37.0737 27.2705C37.0737 27.2038 37.0928 27.1467 37.1404 27.0991C37.188 27.0515 37.2451 27.0325 37.3117 27.0325C37.3784 27.0325 37.4355 27.0515 37.4831 27.0991C37.5307 27.1467 37.5498 27.2038 37.5498 27.2705C37.5498 27.3371 37.5307 27.3942 37.4831 27.4418C37.4355 27.4894 37.3784 27.5085 37.3117 27.5085ZM37.4736 27.9845V30.5169H37.1499V27.9845H37.4736ZM40.1584 27.9464C40.3964 27.9464 40.6058 28.0036 40.7772 28.1178C40.9485 28.232 41.0818 28.3653 41.158 28.5367V27.9845H41.4817V30.5836C41.4817 30.8121 41.4341 31.0215 41.3294 31.2024C41.2246 31.3833 41.0914 31.5166 40.9105 31.6213C40.7296 31.7165 40.5296 31.7641 40.3012 31.7641C39.9775 31.7641 39.7109 31.6879 39.4919 31.5356C39.273 31.3833 39.1397 31.1738 39.0921 30.9073H39.4158C39.4729 31.0882 39.5776 31.2215 39.7299 31.3262C39.8823 31.4309 40.0727 31.488 40.3012 31.488C40.463 31.488 40.6153 31.4499 40.7391 31.3833C40.8724 31.3167 40.9676 31.2119 41.0438 31.0786C41.1199 30.9454 41.158 30.7835 41.158 30.5931V29.9648C41.0723 30.1361 40.9485 30.2789 40.7772 30.3932C40.6058 30.5074 40.3964 30.5645 40.1584 30.5645C39.9203 30.5645 39.7204 30.5074 39.53 30.4027C39.3491 30.298 39.1968 30.1361 39.1016 29.9457C39.0064 29.7553 38.9493 29.5173 38.9493 29.2602C38.9493 29.0032 38.9969 28.7747 39.1016 28.5748C39.2063 28.3748 39.3491 28.2225 39.53 28.1178C39.7109 28.0036 39.9203 27.9559 40.1584 27.9464ZM41.158 29.2507C41.158 29.0508 41.1199 28.8699 41.0342 28.7081C40.9485 28.5462 40.8343 28.432 40.6915 28.3463C40.5487 28.2606 40.3868 28.2225 40.2155 28.2225C40.0441 28.2225 39.8727 28.2606 39.7299 28.3463C39.5871 28.432 39.4729 28.5462 39.3967 28.6985C39.311 28.8509 39.273 29.0318 39.273 29.2412C39.273 29.4507 39.311 29.6315 39.3967 29.7839C39.4824 29.9362 39.5871 30.06 39.7299 30.1456C39.8727 30.2313 40.0346 30.2694 40.2155 30.2694C40.3964 30.2694 40.5487 30.2313 40.6915 30.1456C40.8343 30.06 40.9485 29.9457 41.0342 29.7839C41.1199 29.6315 41.158 29.4602 41.158 29.2507ZM43.2715 27.5085C43.2049 27.5085 43.1478 27.4894 43.1002 27.4418C43.0526 27.3942 43.0335 27.3371 43.0335 27.2705C43.0335 27.2038 43.0526 27.1467 43.1002 27.0991C43.1478 27.0515 43.2049 27.0325 43.2715 27.0325C43.3382 27.0325 43.3953 27.0515 43.4429 27.0991C43.4905 27.1467 43.5095 27.2038 43.5095 27.2705C43.5095 27.3371 43.4905 27.3942 43.4429 27.4418C43.3953 27.4894 43.3382 27.5085 43.2715 27.5085ZM43.4334 27.9845V30.5169H43.1097V27.9845H43.4334ZM45.4803 28.2606V29.8315C45.4803 29.9838 45.5088 30.098 45.5659 30.1552C45.6231 30.2123 45.7278 30.2408 45.8801 30.2408H46.1753V30.5169H45.823C45.5945 30.5169 45.4231 30.4598 45.3089 30.3551C45.1947 30.2504 45.1375 30.0695 45.1375 29.8315V28.2606H44.7853V27.9845H45.1375V27.3466H45.4707V27.9845H46.1657V28.2606H45.4803ZM47.4415 29.2507C47.4415 28.9937 47.4891 28.7652 47.5938 28.5653C47.6985 28.3653 47.8413 28.213 48.0222 28.1083C48.2031 28.0036 48.4126 27.9464 48.6506 27.9464C48.8886 27.9464 49.098 28.0036 49.2789 28.1178C49.4598 28.232 49.5836 28.3748 49.6597 28.5462V27.9845H49.9834V30.5169H49.6597V29.9552C49.5836 30.1266 49.4503 30.2694 49.2789 30.3837C49.1075 30.4979 48.8981 30.555 48.6506 30.555C48.403 30.555 48.2126 30.4979 48.0317 30.3932C47.8509 30.2884 47.6985 30.1266 47.6033 29.9362C47.4891 29.7363 47.4415 29.5078 47.4415 29.2507ZM49.6502 29.2507C49.6502 29.0508 49.6121 28.8699 49.5265 28.7081C49.4408 28.5462 49.3265 28.432 49.1837 28.3463C49.0409 28.2606 48.8791 28.2225 48.7077 28.2225C48.5363 28.2225 48.365 28.2606 48.2221 28.3463C48.0793 28.432 47.9651 28.5462 47.8889 28.6985C47.8033 28.8509 47.7652 29.0318 47.7652 29.2412C47.7652 29.4507 47.8033 29.6315 47.8889 29.7839C47.9746 29.9362 48.0793 30.06 48.2221 30.1456C48.365 30.2313 48.5268 30.2694 48.7077 30.2694C48.8886 30.2694 49.0409 30.2313 49.1837 30.1456C49.3265 30.06 49.4408 29.9457 49.5265 29.7839C49.6121 29.6315 49.6502 29.4602 49.6502 29.2507ZM51.9256 27.0896V30.5265H51.6019V27.0896H51.9256ZM57.7807 28.213C57.7807 28.4891 57.6855 28.7176 57.5046 28.8889C57.3237 29.0603 57.0476 29.146 56.6858 29.146H56.0289V30.5265H55.7052V27.28H56.6858C57.0476 27.28 57.3237 27.3657 57.5046 27.537C57.6855 27.6989 57.7807 27.9274 57.7807 28.213ZM56.6858 28.8604C57.1904 28.8604 57.4474 28.6414 57.4474 28.213C57.4474 27.994 57.3903 27.8322 57.2666 27.7179C57.1428 27.6037 56.9524 27.5466 56.6858 27.5466H56.0289V28.8604H56.6858ZM60.3131 30.555C60.0751 30.555 59.8561 30.4979 59.6657 30.3932C59.4753 30.2884 59.323 30.1361 59.2182 29.9362C59.104 29.7363 59.0564 29.5078 59.0564 29.2507C59.0564 28.9937 59.1135 28.7557 59.2278 28.5653C59.342 28.3748 59.4943 28.213 59.6847 28.1083C59.8751 28.0036 60.0941 27.9464 60.3321 27.9464C60.5701 27.9464 60.7891 28.0036 60.9795 28.1083C61.1699 28.213 61.3223 28.3653 61.4365 28.5653C61.5507 28.7652 61.5983 28.9937 61.5983 29.2507C61.5983 29.5078 61.5412 29.7363 61.427 29.9362C61.3127 30.1361 61.1604 30.2884 60.97 30.3932C60.7796 30.4979 60.5511 30.555 60.3131 30.555ZM60.3131 30.2789C60.4845 30.2789 60.6368 30.2408 60.7796 30.1647C60.9224 30.0885 61.0366 29.9743 61.1223 29.8219C61.208 29.6696 61.2556 29.4792 61.2556 29.2602C61.2556 29.0413 61.208 28.8509 61.1223 28.6985C61.0366 28.5462 60.9224 28.432 60.7796 28.3558C60.6368 28.2796 60.4845 28.2416 60.3131 28.2416C60.1417 28.2416 59.9894 28.2796 59.8466 28.3558C59.7038 28.432 59.5895 28.5462 59.5039 28.6985C59.4182 28.8509 59.3801 29.0413 59.3801 29.2602C59.3801 29.4792 59.4277 29.6696 59.5039 29.8219C59.58 29.9743 59.7038 30.0885 59.8466 30.1647C59.9894 30.2408 60.1512 30.2789 60.3131 30.2789ZM63.9404 30.555C63.6452 30.555 63.4167 30.4884 63.2263 30.3551C63.0454 30.2218 62.9407 30.0409 62.9217 29.8029H63.2549C63.2739 29.9457 63.3406 30.06 63.4548 30.1456C63.5691 30.2313 63.7309 30.2789 63.9309 30.2789C64.1022 30.2789 64.245 30.2408 64.3497 30.1552C64.4545 30.0695 64.5021 29.9648 64.5021 29.841C64.5021 29.7553 64.4735 29.6791 64.4164 29.6315C64.3593 29.5744 64.2926 29.5363 64.2069 29.4983C64.1213 29.4697 64.007 29.4316 63.8642 29.3935C63.6738 29.3459 63.5215 29.2983 63.4072 29.2412C63.293 29.1841 63.1883 29.1174 63.1026 29.0222C63.0169 28.927 62.9788 28.7937 62.9788 28.6319C62.9788 28.5081 63.0169 28.3939 63.0931 28.2892C63.1692 28.1844 63.2739 28.0988 63.4072 28.0416C63.5405 27.9845 63.7024 27.9464 63.8737 27.9464C64.1498 27.9464 64.3688 28.0131 64.5306 28.1559C64.702 28.2987 64.7877 28.4796 64.7972 28.7271H64.4735C64.464 28.5748 64.4069 28.4605 64.3021 28.3653C64.1974 28.2701 64.0451 28.232 63.8642 28.232C63.7024 28.232 63.5691 28.2701 63.4643 28.3463C63.3596 28.4224 63.312 28.5177 63.312 28.6319C63.312 28.7271 63.3406 28.8128 63.4072 28.8794C63.4644 28.9461 63.5405 28.9937 63.6357 29.0318C63.7214 29.0698 63.8452 29.1079 63.9975 29.146C64.1784 29.1936 64.3307 29.2412 64.4354 29.2888C64.5402 29.3364 64.6354 29.4031 64.7115 29.4887C64.7877 29.5744 64.8258 29.6982 64.8353 29.8505C64.8353 29.9838 64.7972 30.1076 64.721 30.2123C64.6449 30.317 64.5402 30.4027 64.4069 30.4693C64.2736 30.536 64.1117 30.555 63.9404 30.555ZM67.1868 30.555C66.8917 30.555 66.6632 30.4884 66.4728 30.3551C66.2919 30.2218 66.1872 30.0409 66.1682 29.8029H66.5014C66.5204 29.9457 66.587 30.06 66.7013 30.1456C66.8155 30.2313 66.9774 30.2789 67.1773 30.2789C67.3487 30.2789 67.4915 30.2408 67.5962 30.1552C67.7009 30.0695 67.7485 29.9648 67.7485 29.841C67.7485 29.7553 67.72 29.6791 67.6629 29.6315C67.6057 29.5744 67.5391 29.5363 67.4534 29.4983C67.3677 29.4697 67.2535 29.4316 67.1107 29.3935C66.9203 29.3459 66.7679 29.2983 66.6537 29.2412C66.5394 29.1841 66.4347 29.1174 66.349 29.0222C66.2634 28.927 66.2253 28.7937 66.2253 28.6319C66.2253 28.5081 66.2634 28.3939 66.3395 28.2892C66.4157 28.1844 66.5204 28.0988 66.6537 28.0416C66.787 27.9845 66.9488 27.9464 67.1202 27.9464C67.3963 27.9464 67.6152 28.0131 67.7771 28.1559C67.9485 28.2987 68.0342 28.4796 68.0437 28.7271H67.72C67.7105 28.5748 67.6533 28.4605 67.5486 28.3653C67.4439 28.2701 67.2916 28.232 67.1107 28.232C66.9488 28.232 66.8155 28.2701 66.7108 28.3463C66.6061 28.4224 66.5585 28.5177 66.5585 28.6319C66.5585 28.7271 66.587 28.8128 66.6537 28.8794C66.7108 28.9461 66.787 28.9937 66.8822 29.0318C66.9679 29.0698 67.0916 29.1079 67.244 29.146C67.4248 29.1936 67.5772 29.2412 67.6819 29.2888C67.7866 29.3364 67.8818 29.4031 67.958 29.4887C68.0342 29.5744 68.0722 29.6982 68.0818 29.8505C68.0818 29.9838 68.0437 30.1076 67.9675 30.2123C67.8913 30.317 67.7866 30.4027 67.6533 30.4693C67.52 30.536 67.3677 30.555 67.1868 30.555ZM69.7288 27.5085C69.6621 27.5085 69.605 27.4894 69.5574 27.4418C69.5098 27.3942 69.4908 27.3371 69.4908 27.2705C69.4908 27.2038 69.5098 27.1467 69.5574 27.0991C69.605 27.0515 69.6621 27.0325 69.7288 27.0325C69.7954 27.0325 69.8526 27.0515 69.9002 27.0991C69.9478 27.1467 69.9668 27.2038 69.9668 27.2705C69.9668 27.3371 69.9478 27.3942 69.9002 27.4418C69.8526 27.4894 69.7954 27.5085 69.7288 27.5085ZM69.8906 27.9845V30.5169H69.5669V27.9845H69.8906ZM71.8328 28.5462C71.9185 28.3653 72.0422 28.2225 72.2231 28.1178C72.3945 28.0036 72.604 27.9464 72.842 27.9464C73.08 27.9464 73.2799 28.0036 73.4608 28.1083C73.6417 28.213 73.7845 28.3653 73.8892 28.5653C73.9939 28.7652 74.0415 28.9937 74.0415 29.2507C74.0415 29.5078 73.9939 29.7363 73.8892 29.9362C73.7845 30.1361 73.6417 30.2884 73.4608 30.3932C73.2799 30.4979 73.0705 30.555 72.842 30.555C72.604 30.555 72.3945 30.4979 72.2136 30.3932C72.0423 30.2884 71.909 30.1361 71.8328 29.9648V30.5265H71.5091V27.0896H71.8328V28.5462ZM73.7178 29.2507C73.7178 29.0413 73.6798 28.8604 73.5941 28.7081C73.5084 28.5557 73.4037 28.4415 73.2609 28.3558C73.1181 28.2701 72.9562 28.232 72.7753 28.232C72.5944 28.232 72.4421 28.2701 72.2993 28.3558C72.1565 28.4415 72.0423 28.5557 71.9566 28.7176C71.8709 28.8699 71.8328 29.0508 71.8328 29.2602C71.8328 29.4697 71.8709 29.6411 71.9566 29.8029C72.0423 29.9648 72.1565 30.079 72.2993 30.1647C72.4421 30.2504 72.604 30.2884 72.7753 30.2884C72.9467 30.2884 73.1181 30.2504 73.2609 30.1647C73.4037 30.079 73.5179 29.9648 73.5941 29.8029C73.6798 29.6411 73.7178 29.4602 73.7178 29.2507ZM75.6886 27.5085C75.6219 27.5085 75.5648 27.4894 75.5172 27.4418C75.4696 27.3942 75.4506 27.3371 75.4506 27.2705C75.4506 27.2038 75.4696 27.1467 75.5172 27.0991C75.5648 27.0515 75.6219 27.0325 75.6886 27.0325C75.7552 27.0325 75.8123 27.0515 75.8599 27.0991C75.9075 27.1467 75.9266 27.2038 75.9266 27.2705C75.9266 27.3371 75.9075 27.3942 75.8599 27.4418C75.8123 27.4799 75.7552 27.5085 75.6886 27.5085ZM75.8599 27.9845V30.5169H75.5267V27.9845H75.8599ZM77.8021 27.0801V30.5169H77.4784V27.0801H77.8021ZM79.5824 27.5085C79.5158 27.5085 79.4587 27.4894 79.4111 27.4418C79.3635 27.3942 79.3444 27.3371 79.3444 27.2705C79.3444 27.2038 79.3635 27.1467 79.4111 27.0991C79.4587 27.0515 79.5158 27.0325 79.5824 27.0325C79.6491 27.0325 79.7062 27.0515 79.7538 27.0991C79.8014 27.1467 79.8204 27.2038 79.8204 27.2705C79.8204 27.3371 79.8014 27.3942 79.7538 27.4418C79.7062 27.4799 79.6491 27.5085 79.5824 27.5085ZM79.7443 27.9845V30.5169H79.4206V27.9845H79.7443ZM81.7912 28.2606V29.8315C81.7912 29.9838 81.8197 30.098 81.8768 30.1552C81.934 30.2123 82.0387 30.2408 82.191 30.2408H82.4862V30.5169H82.1339C81.9054 30.5169 81.734 30.4598 81.6198 30.3551C81.5055 30.2504 81.4484 30.0695 81.4484 29.8315V28.2606H81.0962V27.9845H81.4484V27.3466H81.7816V27.9845H82.4766V28.2606H81.7912ZM84.0665 27.5085C83.9999 27.5085 83.9428 27.4894 83.8952 27.4418C83.8476 27.3942 83.8285 27.3371 83.8285 27.2705C83.8285 27.2038 83.8476 27.1467 83.8952 27.0991C83.9428 27.0515 83.9999 27.0325 84.0665 27.0325C84.1332 27.0325 84.1903 27.0515 84.2379 27.0991C84.2855 27.1467 84.3046 27.2038 84.3046 27.2705C84.3046 27.3371 84.2855 27.3942 84.2379 27.4418C84.1808 27.4799 84.1332 27.5085 84.0665 27.5085ZM84.2284 27.9845V30.5169H83.9047V27.9845H84.2284ZM88.1413 29.127C88.1413 29.2412 88.1413 29.3269 88.1318 29.384H86.0277C86.0373 29.5744 86.0849 29.7363 86.1706 29.8791C86.2562 30.0124 86.361 30.1171 86.5038 30.1837C86.6371 30.2504 86.7894 30.2884 86.9512 30.2884C87.1607 30.2884 87.3416 30.2408 87.4844 30.1361C87.6272 30.0314 87.7224 29.8981 87.77 29.7267H88.1127C88.0461 29.9743 87.9223 30.1742 87.7129 30.3361C87.5129 30.4884 87.2559 30.5741 86.9512 30.5741C86.7132 30.5741 86.4942 30.5169 86.3134 30.4122C86.1325 30.3075 85.9801 30.1552 85.8659 29.9552C85.7612 29.7553 85.7041 29.5268 85.7041 29.2698C85.7041 29.0127 85.7517 28.7747 85.8659 28.5748C85.9706 28.3748 86.123 28.2225 86.3038 28.1178C86.4943 28.0131 86.7037 27.9559 86.9512 27.9559C87.1988 27.9559 87.4082 28.0036 87.5891 28.1178C87.77 28.2225 87.9128 28.3653 88.008 28.5462C88.0937 28.7081 88.1413 28.908 88.1413 29.127ZM87.8081 29.1174C87.8081 28.927 87.77 28.7652 87.6938 28.6319C87.6177 28.4986 87.5034 28.3939 87.3701 28.3272C87.2368 28.2606 87.0845 28.2225 86.9227 28.2225C86.6847 28.2225 86.4752 28.2987 86.3038 28.451C86.1325 28.6033 86.0373 28.8223 86.0182 29.1079L87.8081 29.1174ZM90.4928 30.555C90.1977 30.555 89.9692 30.4884 89.7788 30.3551C89.5979 30.2218 89.4932 30.0409 89.4741 29.8029H89.8074C89.8264 29.9457 89.893 30.06 90.0073 30.1456C90.1215 30.2313 90.2834 30.2789 90.4833 30.2789C90.6547 30.2789 90.7975 30.2408 90.9022 30.1552C91.0069 30.0695 91.0545 29.9648 91.0545 29.841C91.0545 29.7553 91.026 29.6791 90.9688 29.6315C90.9117 29.5744 90.8451 29.5363 90.7594 29.4983C90.6737 29.4697 90.5595 29.4316 90.4167 29.3935C90.2263 29.3459 90.0739 29.2983 89.9597 29.2412C89.8454 29.1841 89.7407 29.1174 89.655 29.0222C89.5694 28.927 89.5313 28.7937 89.5313 28.6319C89.5313 28.5081 89.5693 28.3939 89.6455 28.2892C89.7217 28.1844 89.8264 28.0988 89.9597 28.0416C90.093 27.9845 90.2548 27.9464 90.4262 27.9464C90.7023 27.9464 90.9212 28.0131 91.0831 28.1559C91.2545 28.2987 91.3401 28.4796 91.3497 28.7271H91.026C91.0164 28.5748 90.9593 28.4605 90.8546 28.3653C90.7499 28.2701 90.5976 28.232 90.4167 28.232C90.2548 28.232 90.1215 28.2701 90.0168 28.3463C89.9121 28.4224 89.8645 28.5177 89.8645 28.6319C89.8645 28.7271 89.893 28.8128 89.9597 28.8794C90.0168 28.9461 90.093 28.9937 90.1882 29.0318C90.2739 29.0698 90.3976 29.1079 90.5499 29.146C90.7308 29.1936 90.8832 29.2412 90.9879 29.2888C91.0926 29.3364 91.1878 29.4031 91.264 29.4887C91.3401 29.5744 91.3782 29.6982 91.3877 29.8505C91.3877 29.9838 91.3497 30.1076 91.2735 30.2123C91.1973 30.317 91.0926 30.4027 90.9593 30.4693C90.826 30.536 90.6642 30.555 90.4928 30.555Z" fill="white"/>
<path fill-rule="evenodd" clip-rule="evenodd" d="M15.367 18.3309C15.4908 18.5309 15.5955 18.7308 15.7003 18.9307C15.8145 19.1307 15.9287 19.3401 16.043 19.54C16.1572 19.74 16.2715 19.9399 16.3857 20.1303C16.5 20.3207 16.6237 20.5206 16.7475 20.711C16.8713 20.911 17.0046 21.1014 17.1378 21.3013C17.2616 21.4917 17.3949 21.6726 17.5282 21.863C17.4901 21.9106 17.4711 21.9487 17.433 21.9773C16.8237 22.6056 16.1382 23.1387 15.3575 23.5386C14.7673 23.8433 14.1389 24.0622 13.482 24.1955C12.8346 24.3288 12.1777 24.3764 11.5208 24.3478C10.1499 24.2717 8.87412 23.8813 7.71262 23.1483C6.57017 22.4247 5.66573 21.4727 4.9993 20.2921C4.57089 19.5305 4.27575 18.7118 4.12343 17.8454C4.0187 17.2551 3.98062 16.6649 4.00918 16.0651C4.05678 15.113 4.26623 14.1991 4.64705 13.3232C5.26588 11.9142 6.19888 10.7813 7.46509 9.91489C8.38857 9.28655 9.40726 8.86765 10.5116 8.66772C11.1685 8.55347 11.8254 8.52491 12.4919 8.563C13.482 8.62964 14.434 8.86765 15.329 9.31511C15.9287 9.61976 16.4809 9.99106 16.9855 10.4385C17.5567 10.9431 18.0613 11.5048 18.5088 12.1141C19.061 12.8567 19.5465 13.6469 19.994 14.4561C20.47 15.3034 20.9365 16.1603 21.4125 17.0076C21.7457 17.5883 22.098 18.1596 22.5169 18.6832C22.793 19.0354 23.0881 19.3496 23.4404 19.6352C23.9354 20.0256 24.4971 20.2636 25.116 20.3493C25.6777 20.4254 26.2394 20.3969 26.782 20.235C27.3247 20.0827 27.8102 19.8161 28.2387 19.4543C28.6861 19.0735 29.0288 18.6166 29.2764 18.0834C29.5715 17.4265 29.6953 16.741 29.6096 16.027C29.5239 15.2654 29.2383 14.5799 28.7528 13.9801C28.3148 13.4374 27.7722 13.0376 27.1152 12.7805C26.6678 12.6092 26.2013 12.514 25.7253 12.5044C24.7637 12.4949 23.9069 12.7996 23.1833 13.447C22.8882 13.7135 22.6216 13.9992 22.3741 14.3133C22.336 14.3609 22.2884 14.418 22.2408 14.4752C22.1932 14.399 22.1551 14.3324 22.117 14.2752C21.8124 13.7326 21.5077 13.1899 21.184 12.6568C20.8698 12.1236 20.5271 11.6095 20.1558 11.124C20.0797 11.0288 20.0511 10.9336 20.0511 10.8098C20.0511 8.20122 20.0511 5.86872 20.0511 3.26013C20.0511 3.19348 20.0606 3.12684 20.0606 3.0602C20.1082 3.05068 20.1368 3.04116 20.1653 3.04116C20.5938 3.02212 23.2404 3.03164 23.4118 3.0602C23.4213 3.08876 23.4308 3.12684 23.4308 3.16492C23.4308 3.24109 23.4308 3.32677 23.4308 3.40293C23.4308 5.23085 23.4308 6.77316 23.4213 8.60108V8.82957C23.4689 8.82957 23.5165 8.83909 23.5451 8.82957C23.8878 8.73436 24.2306 8.66772 24.5923 8.62012C24.8494 8.59156 25.116 8.563 25.373 8.563C25.6586 8.55348 25.9347 8.55347 26.2203 8.57252C28.391 8.74388 30.2094 9.65784 31.647 11.2954C32.4562 12.2093 33.0084 13.2661 33.313 14.4466C33.4844 15.075 33.5606 15.7223 33.5701 16.3697C33.5701 17.0171 33.513 17.655 33.3606 18.2833C33.1322 19.2354 32.7418 20.1208 32.1801 20.93C31.4756 21.9487 30.5807 22.7675 29.4953 23.3672C28.7147 23.8052 27.8864 24.0908 27.0105 24.2431C26.4393 24.3383 25.8681 24.3764 25.2873 24.3478C23.6593 24.2717 22.1932 23.7385 20.927 22.7103C20.2796 22.1867 19.7179 21.5774 19.2133 20.911C18.6421 20.1493 18.1375 19.3401 17.6805 18.5118C17.195 17.6455 16.7189 16.7791 16.2334 15.9128C15.9002 15.3225 15.5289 14.7513 15.11 14.2181C14.8339 13.8659 14.5197 13.5422 14.1675 13.2661C13.6343 12.8567 13.0345 12.6187 12.3586 12.5425C11.9683 12.4949 11.5684 12.5044 11.1781 12.5806C10.3022 12.7425 9.56911 13.1423 8.96932 13.7992C8.42666 14.399 8.09344 15.094 7.9792 15.8937C7.86495 16.6649 7.9792 17.4075 8.30289 18.112C8.60754 18.7594 9.04548 19.283 9.63575 19.6924C10.1499 20.0541 10.7211 20.2731 11.3399 20.3588C11.8826 20.435 12.4252 20.4064 12.9489 20.2541C13.5106 20.0922 13.9866 19.7876 14.4055 19.3972C14.7006 19.1307 14.9577 18.826 15.1957 18.5118C15.2623 18.4452 15.3004 18.3785 15.367 18.3309Z" fill="white"/>
<path fill-rule="evenodd" clip-rule="evenodd" d="M65.3207 16.5308C65.3112 17.7209 65.1017 18.8634 64.6067 19.9487C63.6737 22.0241 62.1123 23.376 59.9321 24.0234C59.0372 24.29 58.1233 24.3757 57.1903 24.3566C56.2858 24.3376 55.4004 24.1948 54.5531 23.8901C52.392 23.1095 50.9258 21.6147 50.1356 19.4631C49.8881 18.7967 49.7453 18.1017 49.6786 17.3877C49.631 16.9212 49.631 16.4642 49.6501 15.9977C49.7262 14.6744 50.069 13.4177 50.7449 12.2752C51.7351 10.6187 53.1631 9.52382 55.0101 8.98116C55.9336 8.71459 56.8761 8.61939 57.8376 8.65747C59.0277 8.70507 60.1606 8.97164 61.2174 9.52382C62.8644 10.3711 64.0164 11.6754 64.7209 13.3796C65.0065 14.0841 65.1874 14.8172 65.254 15.5788C65.2921 15.9025 65.3017 16.2167 65.3207 16.5308ZM53.3535 16.5118C53.3821 16.7784 53.3916 17.045 53.4297 17.3115C53.5059 17.8827 53.6772 18.4254 53.9533 18.93C54.5055 19.9296 55.3243 20.577 56.4381 20.8341C56.9808 20.9578 57.5235 20.9769 58.0757 20.9102C58.6088 20.8436 59.1039 20.6817 59.5704 20.4152C60.2654 20.0058 60.7699 19.4155 61.1031 18.6825C61.5316 17.7399 61.6553 16.7593 61.484 15.7407C61.3602 14.9505 61.0555 14.2364 60.5605 13.6081C60.0559 12.9512 59.4085 12.4942 58.6183 12.2467C57.9804 12.0467 57.3331 12.0277 56.6666 12.1419C55.9526 12.2657 55.3147 12.5704 54.7816 13.0559C54.3722 13.4272 54.0676 13.8651 53.8295 14.3602C53.5154 15.0361 53.3821 15.7597 53.3535 16.5118Z" fill="white"/>
<path fill-rule="evenodd" clip-rule="evenodd" d="M89.4456 10.9618C90.0834 11.6568 90.5404 12.466 90.8451 13.3514C91.064 13.9893 91.1973 14.6462 91.264 15.3127C91.3116 15.7601 91.3306 16.2076 91.3306 16.655V24.0905C91.3306 24.1666 91.3401 24.2523 91.3116 24.3285C91.283 24.338 91.264 24.3475 91.2449 24.3475C90.0549 24.3475 88.8553 24.3475 87.6652 24.3475C87.6462 24.3475 87.6272 24.338 87.5986 24.3285C87.5986 24.2618 87.5891 24.1857 87.5891 24.119C87.5891 23.3764 87.5891 22.6339 87.5891 21.8913C87.5891 20.0633 87.5891 18.2354 87.5891 16.4075C87.5891 15.722 87.4653 15.0651 87.1797 14.4368C86.7799 13.5609 86.1325 12.9421 85.1995 12.6374C84.771 12.4946 84.3236 12.447 83.8666 12.4565C82.5909 12.4946 81.5912 13.0468 80.8677 14.0845C80.4583 14.6748 80.2298 15.3317 80.1346 16.0457C80.106 16.2837 80.0965 16.5313 80.0965 16.7693V24.1095C80.0965 24.1857 80.106 24.2714 80.0775 24.357C79.8014 24.3761 76.574 24.3666 76.4121 24.3475C76.4121 24.3094 76.4026 24.2714 76.3931 24.2428C76.3931 24.1857 76.3931 24.1381 76.3931 24.081V9.5528C76.3931 9.46712 76.3931 9.38144 76.3931 9.29575C76.4788 9.25767 76.5454 9.27671 76.6216 9.27671H79.7062C79.7823 9.61945 79.7919 9.95266 79.8395 10.2764C79.8871 10.6096 79.9061 10.9428 79.9632 11.276C80.0489 11.2474 80.0965 11.1903 80.1441 11.1332C80.4583 10.8381 80.782 10.562 81.1342 10.3144C81.7912 9.83842 82.5052 9.47664 83.2859 9.25767C83.7048 9.14343 84.1237 9.0863 84.5521 9.05774C85.4375 9.01014 86.3038 9.13391 87.1416 9.43856C87.8176 9.68609 88.4269 10.0479 88.9695 10.5144" fill="white"/>
<path fill-rule="evenodd" clip-rule="evenodd" d="M36.7024 19.0347C36.731 19.0538 36.75 19.0633 36.7596 19.0823C37.1213 19.4632 37.5498 19.7583 38.0163 20.0153C38.9969 20.558 40.0536 20.9007 41.158 21.0721C41.5102 21.1197 41.8625 21.1388 42.2243 21.1197C42.6813 21.0912 43.1287 20.9864 43.5381 20.7865C43.8047 20.6627 44.0332 20.4914 44.2331 20.2724C44.5663 19.8916 44.6805 19.4632 44.5758 18.9681C44.5187 18.7206 44.3854 18.5302 44.195 18.3683C44.0522 18.2541 43.8904 18.1684 43.7285 18.1017C43.4334 17.9875 43.1287 17.9113 42.8145 17.8637C42.4147 17.7971 42.0053 17.7685 41.5959 17.74C40.5296 17.6543 39.4824 17.4734 38.4732 17.1021C37.8449 16.8641 37.2546 16.5499 36.7405 16.112C35.9884 15.4646 35.5505 14.6458 35.4267 13.6557C35.341 12.9702 35.3981 12.2943 35.6266 11.6374C35.8646 10.9519 36.2835 10.3807 36.8357 9.91419C37.3403 9.48577 37.902 9.18112 38.5113 8.94311C39.1492 8.69558 39.8156 8.54325 40.4916 8.44805C41.2532 8.34332 42.0148 8.35284 42.7765 8.40044C43.4429 8.44805 44.0903 8.55277 44.7281 8.73366C45.7754 9.03831 46.6894 9.57146 47.5176 10.2855C47.5367 10.3045 47.5557 10.3236 47.5652 10.3331C47.5652 10.3521 47.5652 10.3521 47.5652 10.3617C47.5652 10.3712 47.5652 10.3712 47.5557 10.3807C46.9178 11.1328 46.28 11.8849 45.6421 12.637C45.6135 12.6751 45.585 12.7132 45.5469 12.7418C45.5374 12.7513 45.5279 12.7513 45.4993 12.7703C45.4612 12.7418 45.4231 12.7132 45.3851 12.6846C44.7853 12.1515 44.0903 11.7897 43.3001 11.6088C42.8907 11.5136 42.4813 11.466 42.0624 11.4565C41.6721 11.447 41.2722 11.447 40.8819 11.5041C40.5582 11.5517 40.2535 11.6183 39.9489 11.7421C39.7966 11.8088 39.6442 11.8944 39.511 11.9896C38.8445 12.4847 38.9207 13.4272 39.4253 13.8747C39.6062 14.0365 39.8061 14.1508 40.0251 14.2365C40.3868 14.3888 40.7677 14.4745 41.1485 14.5126C41.5959 14.5602 42.0434 14.5982 42.4908 14.6363C43.4048 14.722 44.3092 14.8648 45.1851 15.1599C45.6707 15.3218 46.1277 15.5408 46.5561 15.8264C47.4605 16.4452 47.9937 17.302 48.1936 18.3778C48.2793 18.8443 48.3078 19.3204 48.2697 19.7964C48.1745 20.9103 47.7271 21.8623 46.9274 22.643C46.3466 23.2047 45.6707 23.595 44.9186 23.8616C44.3092 24.0806 43.6809 24.2139 43.043 24.29C42.31 24.3757 41.5674 24.3757 40.8343 24.3281C40.1393 24.29 39.4443 24.1948 38.7684 24.0234C37.4069 23.6712 36.2359 22.9952 35.2172 22.0337C35.1125 21.929 35.0078 21.8242 34.9031 21.7195C34.8936 21.71 34.884 21.6909 34.8745 21.6719C34.9602 21.5291 36.5215 19.2442 36.7024 19.0347Z" fill="white"/>
<path fill-rule="evenodd" clip-rule="evenodd" d="M70.2144 3.01204V24.3378C70.1573 24.3473 70.1192 24.3473 70.0811 24.3568H66.6633C66.6252 24.3568 66.5871 24.3568 66.5395 24.3473C66.53 24.2997 66.5205 24.2616 66.5205 24.233C66.5205 24.1759 66.5205 24.1283 66.5205 24.0712V3.05012C66.5776 2.98348 66.6347 3.00252 66.6824 3.00252C67.0822 3.00252 67.4725 3.00252 67.8724 3.00252H69.9859C70.0431 3.01204 70.1192 3.01204 70.2144 3.01204Z" fill="white"/>
<path fill-rule="evenodd" clip-rule="evenodd" d="M71.4329 9.25775C71.6329 9.22919 74.965 9.22919 75.1459 9.25775C75.1554 9.29583 75.1649 9.33391 75.1649 9.372C75.1649 9.42912 75.1649 9.47672 75.1649 9.53384V24.0906C75.1649 24.1762 75.1745 24.2619 75.1554 24.3476C75.1269 24.3571 75.1078 24.3666 75.0888 24.3666H71.4615C71.452 24.319 71.4425 24.2905 71.4329 24.2524C71.4329 24.1953 71.4329 24.1477 71.4329 24.0906V9.52432C71.4234 9.43864 71.4329 9.35295 71.4329 9.25775Z" fill="white"/>
<path fill-rule="evenodd" clip-rule="evenodd" d="M75.1363 6.67762C74.9364 6.70619 71.6423 6.70619 71.4614 6.67762C71.4519 6.63954 71.4424 6.59194 71.4424 6.54434C71.4424 6.27777 71.4424 6.02072 71.4424 5.76366V3.25028C71.4424 3.17411 71.4424 3.10747 71.4519 3.03131C71.5281 3.00274 71.6042 3.01227 71.6709 3.01227C72.5468 3.01227 73.4131 3.01227 74.2795 3.01227H75.0982C75.1458 3.08843 75.1268 3.16459 75.1268 3.24075C75.1268 4.00239 75.1268 4.76402 75.1268 5.53517L75.1363 6.67762Z" fill="white"/>
<path d="M93.6535 6.64844C94.0534 6.64844 94.4437 6.75316 94.8246 6.95309C95.2054 7.16254 95.5005 7.44815 95.71 7.82897C95.9194 8.20978 96.0241 8.60964 96.0241 9.02854C96.0241 9.44744 95.9194 9.83777 95.71 10.2091C95.5005 10.5899 95.2054 10.885 94.8341 11.0945C94.4533 11.3039 94.0629 11.4086 93.644 11.4086C93.2251 11.4086 92.8348 11.3039 92.454 11.0945C92.0731 10.885 91.7875 10.5899 91.5686 10.2091C91.3591 9.82825 91.2544 9.43792 91.2544 9.02854C91.2544 8.61916 91.3591 8.2193 91.5781 7.82897C91.7971 7.43863 92.0922 7.15302 92.473 6.95309C92.8538 6.75316 93.2537 6.64844 93.6535 6.64844ZM93.6535 7.04829C93.3203 7.04829 92.9966 7.13398 92.6729 7.30535C92.3588 7.47671 92.1112 7.72424 91.9303 8.03842C91.7495 8.36211 91.6638 8.68581 91.6638 9.03806C91.6638 9.39032 91.7495 9.71401 91.9303 10.0282C92.1017 10.3424 92.3492 10.5899 92.6634 10.7613C92.9776 10.9326 93.3108 11.0278 93.6535 11.0278C93.9963 11.0278 94.3295 10.9421 94.6437 10.7613C94.9578 10.5899 95.2054 10.3424 95.3767 10.0282C95.5481 9.71401 95.6433 9.3808 95.6433 9.03806C95.6433 8.69533 95.5576 8.36211 95.3767 8.03842C95.1958 7.71472 94.9483 7.47671 94.6341 7.30535C94.3104 7.13398 93.9868 7.04829 93.6535 7.04829ZM92.6063 10.3519V7.79089H93.4822C93.7868 7.79089 94.0058 7.80993 94.1391 7.86705C94.2724 7.91465 94.3771 8.00034 94.4628 8.11458C94.5389 8.22883 94.5865 8.36211 94.5865 8.48588C94.5865 8.67629 94.5199 8.83813 94.3866 8.97142C94.2533 9.11422 94.0724 9.19039 93.8535 9.19991C93.9487 9.23799 94.0153 9.28559 94.0724 9.33319C94.1772 9.43792 94.3009 9.59977 94.4533 9.83778L94.7674 10.3424H94.2628L94.0344 9.9425C93.8535 9.62833 93.7107 9.4284 93.6059 9.34271C93.5298 9.28559 93.4155 9.25703 93.2727 9.25703H93.0252V10.3424L92.6063 10.3519ZM93.0157 8.90477H93.5203C93.7583 8.90477 93.9201 8.86669 94.0153 8.80005C94.101 8.72389 94.1486 8.62868 94.1486 8.51444C94.1486 8.43828 94.1296 8.37163 94.082 8.31451C94.0344 8.25739 93.9772 8.20979 93.9106 8.18122C93.8439 8.15266 93.7011 8.13362 93.5012 8.13362H93.0347L93.0157 8.90477Z" fill="white"/>
</svg>
