<svg width="15" height="15" viewBox="0 0 15 15" fill="none" xmlns="http://www.w3.org/2000/svg">
<path d="M7.5 1.25C7.5 1.25 4.375 2.5 4.375 7.5C4.375 9.4375 4.85 11.0938 5.41875 12.3938C5.51869 12.6129 5.6798 12.7984 5.88271 12.9282C6.08561 13.0579 6.32167 13.1262 6.5625 13.125H8.4375C8.67833 13.1262 8.91439 13.0579 9.11729 12.9282C9.3202 12.7984 9.48131 12.6129 9.58125 12.3938C10.1562 11.0938 10.625 9.4375 10.625 7.5C10.625 2.5 7.5 1.25 7.5 1.25ZM8.4375 11.875H6.5625C5.9375 10.475 5.625 9.00625 5.625 7.5C5.625 4.6 6.8125 3.25 7.5 2.70625C8.1875 3.25 9.375 4.6 9.375 7.5C9.375 9.00625 9.0625 10.475 8.4375 11.875ZM12.5 13.75L10.0875 12.7812C10.525 11.825 10.8375 10.8375 11.0312 9.83125M4.9125 12.7812L2.5 13.75L3.96875 9.83125C4.1625 10.8375 4.475 11.825 4.9125 12.7812ZM7.5 7.5C6.8125 7.5 6.25 6.9375 6.25 6.25C6.25 5.5625 6.8125 5 7.5 5C8.1875 5 8.75 5.5625 8.75 6.25C8.75 6.9375 8.1875 7.5 7.5 7.5Z" fill="#172032"/>
</svg>
