<svg width="15" height="15" viewBox="0 0 15 15" fill="none" xmlns="http://www.w3.org/2000/svg">
<path d="M5.15625 1.875C4.38516 1.875 3.75 2.51016 3.75 3.28125V11.7188C3.75 12.4898 4.38516 13.125 5.15625 13.125H9.84375C10.6148 13.125 11.25 12.4898 11.25 11.7188V3.28125C11.25 2.51016 10.6148 1.875 9.84375 1.875H5.15625ZM5.15625 2.8125H9.84375C10.1039 2.8125 10.3125 3.02109 10.3125 3.28125V11.7188C10.3125 11.9789 10.1039 12.1875 9.84375 12.1875H5.15625C4.89609 12.1875 4.6875 11.9789 4.6875 11.7188V3.28125C4.6875 3.02109 4.89609 2.8125 5.15625 2.8125ZM7.5 10.7812C7.24219 10.7812 7.03125 10.9922 7.03125 11.25C7.03125 11.5078 7.24219 11.7188 7.5 11.7188C7.75781 11.7188 7.96875 11.5078 7.96875 11.25C7.96875 10.9922 7.75781 10.7812 7.5 10.7812Z" fill="black"/>
</svg>
