<svg width="15" height="15" viewBox="0 0 15 15" fill="none" xmlns="http://www.w3.org/2000/svg">
<path d="M12.9193 3.48691L10.5756 1.14316C10.5102 1.07789 10.4327 1.02613 10.3473 0.990842C10.262 0.955553 10.1705 0.937428 10.0781 0.9375H5.39062C5.07982 0.9375 4.78175 1.06097 4.56198 1.28073C4.34222 1.5005 4.21875 1.79857 4.21875 2.10938V3.28125H3.28125C2.97045 3.28125 2.67238 3.40472 2.45261 3.62448C2.23284 3.84425 2.10938 4.14232 2.10938 4.45313V12.6562C2.10938 12.9671 2.23284 13.2651 2.45261 13.4849C2.67238 13.7047 2.97045 13.8281 3.28125 13.8281H9.60938C9.92018 13.8281 10.2182 13.7047 10.438 13.4849C10.6578 13.2651 10.7812 12.9671 10.7812 12.6562V11.4844H11.9531C12.2639 11.4844 12.562 11.3609 12.7818 11.1411C13.0015 10.9214 13.125 10.6233 13.125 10.3125V3.98438C13.1251 3.89201 13.1069 3.80054 13.0717 3.71518C13.0364 3.62983 12.9846 3.55226 12.9193 3.48691ZM9.375 12.4219H3.51562V4.6875H7.44141L9.375 6.62109V12.4219ZM11.7188 10.0781H10.7812V6.32812C10.7813 6.23576 10.7632 6.14429 10.7279 6.05893C10.6926 5.97358 10.6409 5.89601 10.5756 5.83066L8.23184 3.48691C8.16649 3.42164 8.08892 3.36988 8.00357 3.33459C7.91821 3.2993 7.82674 3.28118 7.73438 3.28125H5.625V2.34375H9.78516L11.7188 4.27734V10.0781ZM8.4375 8.4375C8.4375 8.62398 8.36342 8.80282 8.23156 8.93468C8.0997 9.06655 7.92086 9.14062 7.73438 9.14062H5.15625C4.96977 9.14062 4.79093 9.06655 4.65907 8.93468C4.5272 8.80282 4.45312 8.62398 4.45312 8.4375C4.45312 8.25102 4.5272 8.07218 4.65907 7.94032C4.79093 7.80845 4.96977 7.73438 5.15625 7.73438H7.73438C7.92086 7.73438 8.0997 7.80845 8.23156 7.94032C8.36342 8.07218 8.4375 8.25102 8.4375 8.4375ZM8.4375 10.7812C8.4375 10.9677 8.36342 11.1466 8.23156 11.2784C8.0997 11.4103 7.92086 11.4844 7.73438 11.4844H5.15625C4.96977 11.4844 4.79093 11.4103 4.65907 11.2784C4.5272 11.1466 4.45312 10.9677 4.45312 10.7812C4.45312 10.5948 4.5272 10.4159 4.65907 10.2841C4.79093 10.1522 4.96977 10.0781 5.15625 10.0781H7.73438C7.92086 10.0781 8.0997 10.1522 8.23156 10.2841C8.36342 10.4159 8.4375 10.5948 8.4375 10.7812Z" fill="#172032"/>
</svg>
