<svg width="15" height="15" viewBox="0 0 15 15" fill="none" xmlns="http://www.w3.org/2000/svg">
<path d="M12.2969 12.7344L12.7344 12.2969L11.5625 11.125V9.375H10.9375V11.375L12.2969 12.7344ZM3.125 13.125C2.78125 13.125 2.48708 13.0027 2.2425 12.7581C1.99792 12.5135 1.87542 12.2192 1.875 11.875V3.125C1.875 2.78125 1.9975 2.48708 2.2425 2.2425C2.4875 1.99792 2.78167 1.87542 3.125 1.875H11.875C12.2188 1.875 12.5131 1.9975 12.7581 2.2425C13.0031 2.4875 13.1254 2.78167 13.125 3.125V7.3125C12.9271 7.21875 12.724 7.13812 12.5156 7.07062C12.3073 7.00312 12.0938 6.95354 11.875 6.92187V3.125H3.125V11.875H6.90625C6.9375 12.1042 6.98708 12.3229 7.055 12.5312C7.12292 12.7396 7.20354 12.9375 7.29688 13.125H3.125ZM3.125 11.25V11.875V3.125V6.92187V6.875V11.25ZM4.375 10.625H6.92188C6.95312 10.4062 7.00271 10.1927 7.07062 9.98437C7.13854 9.77604 7.21396 9.57292 7.29688 9.375H4.375V10.625ZM4.375 8.125H8.1875C8.52083 7.8125 8.89333 7.55208 9.305 7.34375C9.71667 7.13542 10.1567 6.99479 10.625 6.92187V6.875H4.375V8.125ZM4.375 5.625H10.625V4.375H4.375V5.625ZM11.25 14.375C10.3854 14.375 9.64854 14.0702 9.03938 13.4606C8.43021 12.851 8.12542 12.1142 8.125 11.25C8.12458 10.3858 8.42938 9.64896 9.03938 9.03937C9.64938 8.42979 10.3862 8.125 11.25 8.125C12.1138 8.125 12.8508 8.42979 13.4613 9.03937C14.0717 9.64896 14.3763 10.3858 14.375 11.25C14.3737 12.1142 14.069 12.8512 13.4606 13.4612C12.8523 14.0712 12.1154 14.3758 11.25 14.375Z" fill="#172032"/>
</svg>
