<svg width="15" height="15" viewBox="0 0 15 15" fill="none" xmlns="http://www.w3.org/2000/svg">
<path fill-rule="evenodd" clip-rule="evenodd" d="M7.5 0.78125C6.71264 0.78125 5.95752 1.09403 5.40077 1.65078C4.84402 2.20753 4.53125 2.96264 4.53125 3.75C4.53125 4.53736 4.84402 5.29247 5.40077 5.84922C5.95752 6.40597 6.71264 6.71875 7.5 6.71875C8.28736 6.71875 9.04247 6.40597 9.59922 5.84922C10.156 5.29247 10.4687 4.53736 10.4687 3.75C10.4687 2.96264 10.156 2.20753 9.59922 1.65078C9.04247 1.09403 8.28736 0.78125 7.5 0.78125ZM5.46875 3.75C5.46875 3.21128 5.68275 2.69462 6.06369 2.31369C6.44462 1.93276 6.96128 1.71875 7.5 1.71875C8.03872 1.71875 8.55537 1.93276 8.93631 2.31369C9.31724 2.69462 9.53125 3.21128 9.53125 3.75C9.53125 4.28872 9.31724 4.80538 8.93631 5.18631C8.55537 5.56724 8.03872 5.78125 7.5 5.78125C6.96128 5.78125 6.44462 5.56724 6.06369 5.18631C5.68275 4.80538 5.46875 4.28872 5.46875 3.75ZM7.5 7.65625C6.05437 7.65625 4.72187 7.985 3.735 8.54C2.7625 9.0875 2.03125 9.91625 2.03125 10.9375V11.0012C2.03062 11.7275 2.03 12.6388 2.82937 13.29C3.2225 13.61 3.77312 13.8381 4.51687 13.9881C5.26187 14.1394 6.23375 14.2188 7.5 14.2188C8.76625 14.2188 9.7375 14.1394 10.4837 13.9881C11.2275 13.8381 11.7775 13.61 12.1712 13.29C12.9706 12.6388 12.9694 11.7275 12.9687 11.0012V10.9375C12.9687 9.91625 12.2375 9.0875 11.2656 8.54C10.2781 7.985 8.94625 7.65625 7.5 7.65625ZM2.96875 10.9375C2.96875 10.4056 3.3575 9.82812 4.19437 9.3575C5.01687 8.895 6.18437 8.59375 7.50062 8.59375C8.81562 8.59375 9.98312 8.895 10.8056 9.3575C11.6431 9.82812 12.0312 10.4056 12.0312 10.9375C12.0312 11.755 12.0062 12.215 11.5787 12.5625C11.3475 12.7513 10.96 12.9356 10.2975 13.0694C9.63687 13.2031 8.73375 13.2812 7.5 13.2812C6.26625 13.2812 5.3625 13.2031 4.7025 13.0694C4.04 12.9356 3.6525 12.7513 3.42125 12.5631C2.99375 12.215 2.96875 11.755 2.96875 10.9375Z" fill="black"/>
</svg>
