<svg width="15" height="15" viewBox="0 0 15 15" fill="none" xmlns="http://www.w3.org/2000/svg">
<path d="M0.875 13.125L4 10M7.28687 11.7944C4.94687 11.2632 2.73688 9.05316 2.20563 6.71316C2.12125 6.34316 2.07938 6.15816 2.20125 5.85753C2.3225 5.55753 2.47188 5.46378 2.76938 5.27816C3.44188 4.85816 4.17063 4.72441 4.92625 4.79066C5.98688 4.88503 6.5175 4.93191 6.7825 4.79378C7.04687 4.65628 7.22625 4.33378 7.58625 3.68941L8.04125 2.87253C8.34125 2.33503 8.49125 2.06566 8.84438 1.93878C9.1975 1.81191 9.41 1.88878 9.835 2.04253C10.3234 2.21791 10.767 2.49916 11.1339 2.8661C11.5009 3.23305 11.7821 3.67662 11.9575 4.16503C12.1113 4.59003 12.1881 4.80253 12.0613 5.15566C11.9344 5.50816 11.6656 5.65816 11.1275 5.95878L10.2919 6.42441C9.64812 6.78316 9.32688 6.96316 9.18875 7.23003C9.05125 7.49753 9.10125 8.01628 9.20125 9.05378C9.275 9.81628 9.14812 10.55 8.7225 11.2313C8.53625 11.5288 8.44313 11.6775 8.1425 11.7994C7.8425 11.9207 7.6575 11.8788 7.28687 11.7944Z" stroke="black" stroke-linecap="round" stroke-linejoin="round"/>
</svg>
