<svg width="15" height="15" viewBox="0 0 15 15" fill="none" xmlns="http://www.w3.org/2000/svg">
<path d="M12.2437 9.6875L11.1062 8.875C11.2937 8.2 11.3062 7.46875 11.1062 6.7375L12.2437 5.9375L11.3374 4.375L10.0687 4.95C9.57493 4.45 8.94993 4.0625 8.21868 3.88125L8.09368 2.5H6.28118L6.15618 3.88125C5.42493 4.0625 4.79993 4.45 4.30618 4.95L3.03743 4.375L2.13118 5.9375L3.26868 6.7375C3.06868 7.46875 3.08118 8.2 3.26868 8.875L2.13118 9.6875L3.03743 11.25L4.30618 10.6687C4.79993 11.1625 5.42493 11.5375 6.15618 11.7313L6.28118 13.125H8.09368L8.21868 11.7313C8.94993 11.5375 9.57493 11.1625 10.0687 10.6687L11.3374 11.25L12.2437 9.6875ZM8.43743 1.875C8.60618 1.875 8.74993 2 8.74993 2.1625L8.86243 3.4375C9.33743 3.6125 9.76243 3.86875 10.1437 4.175L11.2999 3.63125C11.4437 3.55625 11.6249 3.60625 11.7124 3.75L12.9624 5.9375C13.0499 6.06875 12.9999 6.25 12.8624 6.34375L11.8187 7.075C11.8999 7.575 11.8937 8.06875 11.8187 8.55L12.8624 9.28125C12.9999 9.375 13.0499 9.55625 12.9624 9.6875L11.7124 11.875C11.6249 12.0063 11.4437 12.0562 11.2999 11.9812L10.1437 11.4437C9.76243 11.75 9.33743 12 8.86243 12.1875L8.74993 13.4375C8.74993 13.6187 8.60618 13.75 8.43743 13.75H5.93743C5.85455 13.75 5.77506 13.7171 5.71646 13.6585C5.65785 13.5999 5.62493 13.5204 5.62493 13.4375L5.51243 12.1875C5.03743 12 4.61243 11.75 4.23118 11.4437L3.07493 11.9812C2.93118 12.0562 2.74993 12.0063 2.66243 11.875L1.41243 9.6875C1.32493 9.55625 1.37493 9.375 1.51243 9.28125L2.55618 8.55C2.48118 8.06875 2.47493 7.575 2.55618 7.075L1.51243 6.34375C1.37493 6.25 1.32493 6.06875 1.41243 5.9375L2.66243 3.75C2.74993 3.60625 2.93118 3.55625 3.07493 3.63125L4.23118 4.175C4.61243 3.86875 5.03743 3.6125 5.51243 3.4375L5.62493 2.1625C5.62493 2 5.76868 1.875 5.93743 1.875H8.43743ZM7.18743 5.625C7.76759 5.625 8.32399 5.85547 8.73422 6.2657C9.14446 6.67594 9.37493 7.23234 9.37493 7.8125C9.37493 8.39266 9.14446 8.94906 8.73422 9.3593C8.32399 9.76953 7.76759 10 7.18743 10C6.60727 10 6.05087 9.76953 5.64063 9.3593C5.2304 8.94906 4.99993 8.39266 4.99993 7.8125C4.99993 7.23234 5.2304 6.67594 5.64063 6.2657C6.05087 5.85547 6.60727 5.625 7.18743 5.625ZM7.18743 6.25C6.77303 6.25 6.3756 6.41462 6.08257 6.70765C5.78955 7.00067 5.62493 7.3981 5.62493 7.8125C5.62493 8.2269 5.78955 8.62433 6.08257 8.91735C6.3756 9.21038 6.77303 9.375 7.18743 9.375C7.60183 9.375 7.99926 9.21038 8.29228 8.91735C8.58531 8.62433 8.74993 8.2269 8.74993 7.8125C8.74993 7.3981 8.58531 7.00067 8.29228 6.70765C7.99926 6.41462 7.60183 6.25 7.18743 6.25Z" fill="black"/>
</svg>
