<svg width="15" height="15" viewBox="0 0 15 15" fill="none" xmlns="http://www.w3.org/2000/svg">
<path d="M9.24332 5.89286C9.563 5.89286 9.86959 6.01985 10.0956 6.2459C10.3217 6.47195 10.4487 6.77854 10.4487 7.09822V10.4459C10.4487 11.2275 10.1382 11.9771 9.58553 12.5297C9.03287 13.0824 8.2833 13.3929 7.50171 13.3929C6.72013 13.3929 5.97056 13.0824 5.41789 12.5297C4.86523 11.9771 4.55475 11.2275 4.55475 10.4459V7.09822C4.55475 6.77854 4.68174 6.47195 4.90779 6.2459C5.13384 6.01985 5.44042 5.89286 5.76011 5.89286H9.24332ZM9.24332 6.69643H5.76011C5.65354 6.69643 5.55135 6.73876 5.476 6.81411C5.40065 6.88946 5.35832 6.99166 5.35832 7.09822V10.4459C5.35832 11.0144 5.58414 11.5595 5.9861 11.9615C6.38807 12.3635 6.93325 12.5893 7.50171 12.5893C8.07018 12.5893 8.61536 12.3635 9.01732 11.9615C9.41928 11.5595 9.64511 11.0144 9.64511 10.4459V7.09822C9.64511 6.99166 9.60277 6.88946 9.52742 6.81411C9.45208 6.73876 9.34988 6.69643 9.24332 6.69643ZM2.27689 5.89286H4.50332C4.28818 6.11675 4.13703 6.39425 4.06564 6.69643H2.27689C2.17033 6.69643 2.06814 6.73876 1.99279 6.81411C1.91744 6.88946 1.87511 6.99166 1.87511 7.09822V9.91018C1.87489 10.179 1.94213 10.4436 2.07066 10.6798C2.19919 10.9159 2.3849 11.116 2.61079 11.2618C2.83668 11.4076 3.09554 11.4944 3.36365 11.5142C3.63177 11.534 3.90057 11.4863 4.14546 11.3754C4.21671 11.6379 4.31903 11.8875 4.44761 12.1211C4.08058 12.2815 3.67937 12.3479 3.28024 12.3143C2.8811 12.2808 2.49662 12.1483 2.16154 11.9288C1.82645 11.7094 1.55133 11.4099 1.36102 11.0575C1.17071 10.705 1.07122 10.3107 1.07153 9.91018V7.09822C1.07153 6.77854 1.19853 6.47195 1.42457 6.2459C1.65062 6.01985 1.95721 5.89286 2.27689 5.89286ZM12.7233 5.89286C13.043 5.89286 13.3496 6.01985 13.5756 6.2459C13.8017 6.47195 13.9287 6.77854 13.9287 7.09822V9.91072C13.9288 10.311 13.8293 10.705 13.6391 11.0572C13.4489 11.4094 13.174 11.7087 12.8393 11.9281C12.5045 12.1474 12.1203 12.28 11.7215 12.3138C11.3227 12.3476 10.9217 12.2815 10.5547 12.1216L10.5847 12.067C10.6994 11.8495 10.7921 11.6186 10.8585 11.3764C11.1033 11.4866 11.3717 11.5336 11.6393 11.5134C11.907 11.4931 12.1653 11.4061 12.3907 11.2604C12.616 11.1146 12.8013 10.9148 12.9296 10.679C13.0579 10.4433 13.1251 10.1791 13.1251 9.91072V7.09822C13.1251 6.99175 13.0828 6.88964 13.0076 6.8143C12.9324 6.73897 12.8303 6.69657 12.7239 6.69643H10.9383C10.8668 6.39419 10.7154 6.11669 10.5001 5.89286H12.7233ZM7.5001 1.60715C7.74633 1.60715 7.99015 1.65565 8.21764 1.74987C8.44512 1.8441 8.65182 1.98221 8.82593 2.15632C9.00004 2.33043 9.13815 2.53713 9.23238 2.76462C9.32661 2.9921 9.3751 3.23592 9.3751 3.48215C9.3751 3.72838 9.32661 3.97219 9.23238 4.19968C9.13815 4.42716 9.00004 4.63386 8.82593 4.80797C8.65182 4.98208 8.44512 5.12019 8.21764 5.21442C7.99015 5.30865 7.74633 5.35715 7.5001 5.35715C7.00282 5.35715 6.52591 5.1596 6.17428 4.80797C5.82265 4.45634 5.6251 3.97943 5.6251 3.48215C5.6251 2.98487 5.82265 2.50795 6.17428 2.15632C6.52591 1.80469 7.00282 1.60715 7.5001 1.60715ZM11.7874 2.14286C11.9985 2.14286 12.2075 2.18443 12.4025 2.2652C12.5974 2.34596 12.7746 2.46435 12.9238 2.61358C13.0731 2.76282 13.1915 2.93999 13.2722 3.13498C13.353 3.32996 13.3946 3.53895 13.3946 3.75C13.3946 3.96106 13.353 4.17004 13.2722 4.36503C13.1915 4.56002 13.0731 4.73719 12.9238 4.88643C12.7746 5.03566 12.5974 5.15404 12.4025 5.23481C12.2075 5.31558 11.9985 5.35715 11.7874 5.35715C11.3612 5.35715 10.9524 5.18782 10.651 4.88643C10.3496 4.58503 10.1803 4.17624 10.1803 3.75C10.1803 3.32376 10.3496 2.91498 10.651 2.61358C10.9524 2.31219 11.3612 2.14286 11.7874 2.14286ZM3.21278 2.14286C3.42384 2.14286 3.63282 2.18443 3.82781 2.2652C4.0228 2.34596 4.19997 2.46435 4.34921 2.61358C4.49844 2.76282 4.61682 2.93999 4.69759 3.13498C4.77836 3.32996 4.81993 3.53895 4.81993 3.75C4.81993 3.96106 4.77836 4.17004 4.69759 4.36503C4.61682 4.56002 4.49844 4.73719 4.34921 4.88643C4.19997 5.03566 4.0228 5.15404 3.82781 5.23481C3.63282 5.31558 3.42384 5.35715 3.21278 5.35715C2.78654 5.35715 2.37776 5.18782 2.07636 4.88643C1.77496 4.58503 1.60564 4.17624 1.60564 3.75C1.60564 3.32376 1.77496 2.91498 2.07636 2.61358C2.37776 2.31219 2.78654 2.14286 3.21278 2.14286ZM7.5001 2.41072C7.21594 2.41072 6.94342 2.5236 6.74249 2.72453C6.54156 2.92546 6.42868 3.19799 6.42868 3.48215C6.42868 3.76631 6.54156 4.03883 6.74249 4.23976C6.94342 4.44069 7.21594 4.55358 7.5001 4.55358C7.78427 4.55358 8.05679 4.44069 8.25772 4.23976C8.45865 4.03883 8.57153 3.76631 8.57153 3.48215C8.57153 3.19799 8.45865 2.92546 8.25772 2.72453C8.05679 2.5236 7.78427 2.41072 7.5001 2.41072ZM11.7874 2.94643C11.6819 2.94643 11.5774 2.96722 11.4799 3.0076C11.3824 3.04798 11.2938 3.10717 11.2192 3.18179C11.1446 3.25641 11.0854 3.345 11.045 3.44249C11.0046 3.53998 10.9839 3.64448 10.9839 3.75C10.9839 3.85553 11.0046 3.96002 11.045 4.05752C11.0854 4.15501 11.1446 4.2436 11.2192 4.31822C11.2938 4.39283 11.3824 4.45202 11.4799 4.49241C11.5774 4.53279 11.6819 4.55358 11.7874 4.55358C12.0005 4.55358 12.2049 4.46891 12.3556 4.31822C12.5063 4.16752 12.591 3.96312 12.591 3.75C12.591 3.53688 12.5063 3.33249 12.3556 3.18179C12.2049 3.03109 12.0005 2.94643 11.7874 2.94643ZM3.21278 2.94643C3.10726 2.94643 3.00276 2.96722 2.90527 3.0076C2.80778 3.04798 2.71919 3.10717 2.64457 3.18179C2.56995 3.25641 2.51076 3.345 2.47038 3.44249C2.43 3.53998 2.40921 3.64448 2.40921 3.75C2.40921 3.85553 2.43 3.96002 2.47038 4.05752C2.51076 4.15501 2.56995 4.2436 2.64457 4.31822C2.71919 4.39283 2.80778 4.45202 2.90527 4.49241C3.00276 4.53279 3.10726 4.55358 3.21278 4.55358C3.4259 4.55358 3.6303 4.46891 3.78099 4.31822C3.93169 4.16752 4.01636 3.96312 4.01636 3.75C4.01636 3.53688 3.93169 3.33249 3.78099 3.18179C3.6303 3.03109 3.4259 2.94643 3.21278 2.94643Z" fill="black"/>
</svg>
