<svg width="14" height="14" viewBox="0 0 14 14" fill="none" xmlns="http://www.w3.org/2000/svg">
<path fill-rule="evenodd" clip-rule="evenodd" d="M4.6 0H1.15C0.845001 0 0.552494 0.121161 0.336827 0.336827C0.121161 0.552494 0 0.845001 0 1.15V4.6C0 4.905 0.121161 5.19751 0.336827 5.41317C0.552494 5.62884 0.845001 5.75 1.15 5.75H4.6C4.905 5.75 5.19751 5.62884 5.41317 5.41317C5.62884 5.19751 5.75 4.905 5.75 4.6V1.15C5.75 0.845001 5.62884 0.552494 5.41317 0.336827C5.19751 0.121161 4.905 0 4.6 0ZM12.65 0H9.2C8.895 0 8.60249 0.121161 8.38683 0.336827C8.17116 0.552494 8.05 0.845001 8.05 1.15V4.6C8.05 4.905 8.17116 5.19751 8.38683 5.41317C8.60249 5.62884 8.895 5.75 9.2 5.75H12.65C12.955 5.75 13.2475 5.62884 13.4632 5.41317C13.6788 5.19751 13.8 4.905 13.8 4.6V1.15C13.8 0.845001 13.6788 0.552494 13.4632 0.336827C13.2475 0.121161 12.955 0 12.65 0ZM4.6 8.05H1.15C0.845001 8.05 0.552494 8.17116 0.336827 8.38683C0.121161 8.60249 0 8.895 0 9.2V12.65C0 12.955 0.121161 13.2475 0.336827 13.4632C0.552494 13.6788 0.845001 13.8 1.15 13.8H4.6C4.905 13.8 5.19751 13.6788 5.41317 13.4632C5.62884 13.2475 5.75 12.955 5.75 12.65V9.2C5.75 8.895 5.62884 8.60249 5.41317 8.38683C5.19751 8.17116 4.905 8.05 4.6 8.05ZM12.65 8.05H9.2C8.895 8.05 8.60249 8.17116 8.38683 8.38683C8.17116 8.60249 8.05 8.895 8.05 9.2V12.65C8.05 12.955 8.17116 13.2475 8.38683 13.4632C8.60249 13.6788 8.895 13.8 9.2 13.8H12.65C12.955 13.8 13.2475 13.6788 13.4632 13.4632C13.6788 13.2475 13.8 12.955 13.8 12.65V9.2C13.8 8.895 13.6788 8.60249 13.4632 8.38683C13.2475 8.17116 12.955 8.05 12.65 8.05Z" fill="#172032"/>
</svg>
