<svg width="15" height="15" viewBox="0 0 15 15" fill="none" xmlns="http://www.w3.org/2000/svg">
<path d="M8.0175 3.75063C8.1173 3.46785 8.14781 3.16526 8.10648 2.86825C8.06516 2.57124 7.9532 2.28847 7.78 2.04368C7.60679 1.79888 7.3774 1.5992 7.11108 1.46139C6.84475 1.32357 6.54925 1.25165 6.24937 1.25165C5.9495 1.25165 5.654 1.32357 5.38767 1.46139C5.12135 1.5992 4.89196 1.79888 4.71875 2.04368C4.54555 2.28847 4.43359 2.57124 4.39227 2.86825C4.35094 3.16526 4.38145 3.46785 4.48125 3.75063C3.05312 3.75563 2.29125 3.80688 1.79875 4.29938C1.30625 4.79188 1.255 5.55376 1.25 6.98126C1.53273 6.8818 1.83518 6.85157 2.13201 6.89309C2.42883 6.93462 2.71137 7.0467 2.95595 7.21993C3.20053 7.39316 3.40002 7.6225 3.53769 7.88873C3.67536 8.15495 3.74721 8.4503 3.74721 8.75001C3.74721 9.04972 3.67536 9.34507 3.53769 9.61129C3.40002 9.87751 3.20053 10.1069 2.95595 10.2801C2.71137 10.4533 2.42883 10.5654 2.13201 10.6069C1.83518 10.6485 1.53273 10.6182 1.25 10.5188C1.255 11.9463 1.30625 12.7081 1.79875 13.2006C2.29125 13.6931 3.05313 13.7444 4.48063 13.7494C4.38117 13.4667 4.35093 13.1642 4.39246 12.8674C4.43399 12.5706 4.54606 12.288 4.7193 12.0434C4.89253 11.7989 5.12187 11.5994 5.38809 11.4617C5.65431 11.324 5.94966 11.2522 6.24937 11.2522C6.54909 11.2522 6.84444 11.324 7.11066 11.4617C7.37688 11.5994 7.60622 11.7989 7.77945 12.0434C7.95268 12.288 8.06476 12.5706 8.10629 12.8674C8.14782 13.1642 8.11758 13.4667 8.01813 13.7494C9.44563 13.7444 10.2075 13.6931 10.7 13.2006C11.1925 12.7081 11.2437 11.9463 11.2487 10.5181C11.5315 10.6179 11.8341 10.6484 12.1311 10.6071C12.4281 10.5658 12.7109 10.4538 12.9557 10.2806C13.2005 10.1074 13.4002 9.87804 13.538 9.61171C13.6758 9.34538 13.7477 9.04988 13.7477 8.75001C13.7477 8.45014 13.6758 8.15464 13.538 7.88831C13.4002 7.62198 13.2005 7.39259 12.9557 7.21939C12.7109 7.04619 12.4281 6.93423 12.1311 6.8929C11.8341 6.85157 11.5315 6.88209 11.2487 6.98188C11.2437 5.55376 11.1925 4.79188 10.7 4.29938C10.2075 3.80626 9.44563 3.75563 8.0175 3.75063Z" stroke="white" stroke-width="0.9375" stroke-linecap="round" stroke-linejoin="round"/>
</svg>
