<svg width="13" height="13" viewBox="0 0 13 13" fill="none" xmlns="http://www.w3.org/2000/svg">
<path d="M6.5 1.25C7.18944 1.25 7.87213 1.3858 8.50909 1.64963C9.14605 1.91347 9.7248 2.30018 10.2123 2.78769C10.6998 3.2752 11.0865 3.85395 11.3504 4.49091C11.6142 5.12787 11.75 5.81056 11.75 6.5C11.75 7.18944 11.6142 7.87213 11.3504 8.50909C11.0865 9.14605 10.6998 9.7248 10.2123 10.2123C9.7248 10.6998 9.14605 11.0865 8.50909 11.3504C7.87213 11.6142 7.18944 11.75 6.5 11.75V1.25ZM6.5 0.5C4.9087 0.5 3.38258 1.13214 2.25736 2.25736C1.13214 3.38258 0.5 4.9087 0.5 6.5C0.5 8.0913 1.13214 9.61742 2.25736 10.7426C3.38258 11.8679 4.9087 12.5 6.5 12.5C8.0913 12.5 9.61742 11.8679 10.7426 10.7426C11.8679 9.61742 12.5 8.0913 12.5 6.5C12.5 4.9087 11.8679 3.38258 10.7426 2.25736C9.61742 1.13214 8.0913 0.5 6.5 0.5Z" fill="white"/>
</svg>
