<svg width="15" height="15" viewBox="0 0 15 15" fill="none" xmlns="http://www.w3.org/2000/svg">
<path d="M1.99996 8.88875V2.5C1.99996 2.16848 2.13166 1.85054 2.36608 1.61612C2.6005 1.3817 2.91844 1.25 3.24996 1.25H11.75C12.0815 1.25 12.3994 1.3817 12.6338 1.61612C12.8683 1.85054 13 2.16848 13 2.5V8.88875M1.99996 8.88875H13M1.99996 8.88875L1.07496 12.16C1.02242 12.3459 1.01367 12.5414 1.0494 12.7312C1.08512 12.921 1.16434 13.1 1.28085 13.254C1.39736 13.4081 1.54798 13.533 1.72089 13.6191C1.89381 13.7051 2.08431 13.7499 2.27746 13.75H12.7225C12.9156 13.7499 13.1061 13.7051 13.279 13.6191C13.4519 13.533 13.6026 13.4081 13.7191 13.254C13.8356 13.1 13.9148 12.921 13.9505 12.7312C13.9862 12.5414 13.9775 12.3459 13.925 12.16L13 8.88875" stroke="white"/>
<path d="M6.875 11.875H8.125M8.75 3.75L10 5L8.75 6.25M6.25 3.75L5 5L6.25 6.25" stroke="white" stroke-linecap="round" stroke-linejoin="round"/>
</svg>
