<svg width="13" height="13" viewBox="0 0 13 13" fill="none" xmlns="http://www.w3.org/2000/svg">
<path d="M4.53562 6.81625C2.98124 5.65375 1.87249 4.375 1.26687 3.65625C1.07937 3.43375 1.01812 3.27063 0.981245 2.98375C0.854995 2.00125 0.79187 1.51 1.07999 1.1925C1.36812 0.875 1.87749 0.875 2.89624 0.875H10.1037C11.1225 0.875 11.6319 0.875 11.92 1.19187C12.2081 1.50937 12.145 2.00063 12.0187 2.98313C11.9812 3.27 11.92 3.43312 11.7331 3.65562C11.1269 4.37562 10.0162 5.65687 8.45812 6.82125C8.38607 6.87731 8.32651 6.94779 8.28325 7.02818C8.23998 7.10858 8.21397 7.19711 8.20687 7.28812C8.05249 8.995 7.90999 9.93 7.82124 10.4025C7.67812 11.1662 6.59624 11.6256 6.01624 12.035C5.67124 12.2788 5.25249 11.9887 5.20812 11.6112C5.04216 10.1728 4.90173 8.73154 4.78687 7.28812C4.78045 7.19624 4.75476 7.10674 4.71147 7.02544C4.66818 6.94414 4.60827 6.87287 4.53562 6.81625Z" stroke="white" stroke-linecap="round" stroke-linejoin="round"/>
</svg>
