<svg width="15" height="15" viewBox="0 0 15 15" fill="none" xmlns="http://www.w3.org/2000/svg">
<g clip-path="url(#clip0_846_733)">
<path d="M7.5 14.0625C3.88125 14.0625 0.9375 11.1187 0.9375 7.5C0.9375 3.88125 3.88125 0.9375 7.5 0.9375C11.1187 0.9375 14.0625 3.88125 14.0625 7.5C14.0625 11.1187 11.1187 14.0625 7.5 14.0625ZM7.5 1.875C4.39688 1.875 1.875 4.39688 1.875 7.5C1.875 10.6031 4.39688 13.125 7.5 13.125C10.6031 13.125 13.125 10.6031 13.125 7.5C13.125 4.39688 10.6031 1.875 7.5 1.875Z" fill="white"/>
<path d="M7.5 4.21875C6.45937 4.21875 5.625 5.05312 5.625 6.09375H6.5625C6.5625 5.57812 6.98438 5.15625 7.5 5.15625C8.01562 5.15625 8.4375 5.57812 8.4375 6.09375C8.4375 7.03125 7.03125 6.91875 7.03125 8.4375H7.96875C7.96875 7.3875 9.375 7.26562 9.375 6.09375C9.375 5.05312 8.54063 4.21875 7.5 4.21875Z" fill="white"/>
<path d="M7.49995 10.8938C7.82097 10.8938 8.0812 10.6335 8.0812 10.3125C8.0812 9.9915 7.82097 9.73126 7.49995 9.73126C7.17894 9.73126 6.9187 9.9915 6.9187 10.3125C6.9187 10.6335 7.17894 10.8938 7.49995 10.8938Z" fill="white"/>
<path d="M6.09375 6.5625C6.35263 6.5625 6.5625 6.35263 6.5625 6.09375C6.5625 5.83487 6.35263 5.625 6.09375 5.625C5.83487 5.625 5.625 5.83487 5.625 6.09375C5.625 6.35263 5.83487 6.5625 6.09375 6.5625Z" fill="white"/>
<path d="M7.5 8.90625C7.75888 8.90625 7.96875 8.69638 7.96875 8.4375C7.96875 8.17862 7.75888 7.96875 7.5 7.96875C7.24112 7.96875 7.03125 8.17862 7.03125 8.4375C7.03125 8.69638 7.24112 8.90625 7.5 8.90625Z" fill="white"/>
</g>
<defs>
<clipPath id="clip0_846_733">
<rect width="15" height="15" fill="white"/>
</clipPath>
</defs>
</svg>
