<svg width="13" height="11" viewBox="0 0 13 11" fill="none" xmlns="http://www.w3.org/2000/svg">
<path d="M1.49999 0.5L11.5 10.5M9.31249 8.4725C8.46687 8.92813 7.51124 9.25 6.49999 9.25C4.29374 9.25 2.35374 7.7175 1.24187 6.61188C0.948115 6.32 0.80124 6.17437 0.708115 5.8875C0.64124 5.68312 0.64124 5.31688 0.708115 5.1125C0.801865 4.82563 0.94874 4.67938 1.24249 4.3875C1.80312 3.83 2.57374 3.165 3.48249 2.64188M11.1875 7.14625C11.3956 6.96312 11.5862 6.7825 11.7575 6.6125L11.7594 6.61063C12.0519 6.31938 12.1987 6.17313 12.2919 5.88813C12.3587 5.68375 12.3587 5.31688 12.2919 5.1125C12.1981 4.82625 12.0519 4.68 11.7581 4.38812C10.6456 3.2825 8.70687 1.75 6.49999 1.75C6.28874 1.75 6.08062 1.76375 5.87499 1.79M7.32687 6.4375C7.08478 6.65127 6.76935 6.76305 6.44668 6.7494C6.12401 6.73576 5.81914 6.59776 5.59596 6.36432C5.37278 6.13088 5.24862 5.82012 5.24948 5.49716C5.25035 5.1742 5.37619 4.86411 5.60062 4.63188" stroke="white" stroke-linecap="round" stroke-linejoin="round"/>
</svg>
