<svg width="9" height="13" viewBox="0 0 9 13" fill="none" xmlns="http://www.w3.org/2000/svg">
<path d="M2.15625 0.875C1.38516 0.875 0.75 1.51016 0.75 2.28125V10.7188C0.75 11.4898 1.38516 12.125 2.15625 12.125H6.84375C7.61484 12.125 8.25 11.4898 8.25 10.7188V2.28125C8.25 1.51016 7.61484 0.875 6.84375 0.875H2.15625ZM2.15625 1.8125H6.84375C7.10391 1.8125 7.3125 2.02109 7.3125 2.28125V10.7188C7.3125 10.9789 7.10391 11.1875 6.84375 11.1875H2.15625C1.89609 11.1875 1.6875 10.9789 1.6875 10.7188V2.28125C1.6875 2.02109 1.89609 1.8125 2.15625 1.8125ZM4.5 9.78125C4.24219 9.78125 4.03125 9.99219 4.03125 10.25C4.03125 10.5078 4.24219 10.7188 4.5 10.7188C4.75781 10.7188 4.96875 10.5078 4.96875 10.25C4.96875 9.99219 4.75781 9.78125 4.5 9.78125Z" fill="white"/>
</svg>
