<svg width="11" height="15" viewBox="0 0 11 15" fill="none" xmlns="http://www.w3.org/2000/svg">
<path fill-rule="evenodd" clip-rule="evenodd" d="M5.5 0.78125C4.71264 0.78125 3.95752 1.09403 3.40077 1.65078C2.84402 2.20753 2.53125 2.96264 2.53125 3.75C2.53125 4.53736 2.84402 5.29247 3.40077 5.84922C3.95752 6.40597 4.71264 6.71875 5.5 6.71875C6.28736 6.71875 7.04247 6.40597 7.59922 5.84922C8.15597 5.29247 8.46875 4.53736 8.46875 3.75C8.46875 2.96264 8.15597 2.20753 7.59922 1.65078C7.04247 1.09403 6.28736 0.78125 5.5 0.78125ZM3.46875 3.75C3.46875 3.21128 3.68275 2.69462 4.06369 2.31369C4.44462 1.93276 4.96128 1.71875 5.5 1.71875C6.03872 1.71875 6.55537 1.93276 6.93631 2.31369C7.31724 2.69462 7.53125 3.21128 7.53125 3.75C7.53125 4.28872 7.31724 4.80538 6.93631 5.18631C6.55537 5.56724 6.03872 5.78125 5.5 5.78125C4.96128 5.78125 4.44462 5.56724 4.06369 5.18631C3.68275 4.80538 3.46875 4.28872 3.46875 3.75ZM5.5 7.65625C4.05437 7.65625 2.72187 7.985 1.735 8.54C0.762497 9.0875 0.0312468 9.91625 0.0312468 10.9375V11.0012C0.0306218 11.7275 0.0299967 12.6388 0.829372 13.29C1.2225 13.61 1.77312 13.8381 2.51687 13.9881C3.26187 14.1394 4.23375 14.2188 5.5 14.2188C6.76625 14.2188 7.7375 14.1394 8.48375 13.9881C9.2275 13.8381 9.7775 13.61 10.1712 13.29C10.9706 12.6388 10.9694 11.7275 10.9687 11.0012V10.9375C10.9687 9.91625 10.2375 9.0875 9.26562 8.54C8.27812 7.985 6.94625 7.65625 5.5 7.65625ZM0.968747 10.9375C0.968747 10.4056 1.3575 9.82812 2.19437 9.3575C3.01687 8.895 4.18437 8.59375 5.50062 8.59375C6.81562 8.59375 7.98312 8.895 8.80562 9.3575C9.64312 9.82812 10.0312 10.4056 10.0312 10.9375C10.0312 11.755 10.0062 12.215 9.57875 12.5625C9.3475 12.7513 8.96 12.9356 8.2975 13.0694C7.63687 13.2031 6.73375 13.2812 5.5 13.2812C4.26625 13.2812 3.3625 13.2031 2.7025 13.0694C2.04 12.9356 1.6525 12.7513 1.42125 12.5631C0.993747 12.215 0.968747 11.755 0.968747 10.9375Z" fill="white"/>
</svg>
