<svg width="13" height="13" viewBox="0 0 13 13" fill="none" xmlns="http://www.w3.org/2000/svg">
<path d="M0.875 12.125L4 9.00003M7.28687 10.7944C4.94687 10.2632 2.73688 8.05316 2.20563 5.71316C2.12125 5.34316 2.07938 5.15816 2.20125 4.85753C2.3225 4.55753 2.47188 4.46378 2.76938 4.27816C3.44188 3.85816 4.17063 3.72441 4.92625 3.79066C5.98688 3.88503 6.5175 3.93191 6.7825 3.79378C7.04687 3.65628 7.22625 3.33378 7.58625 2.68941L8.04125 1.87253C8.34125 1.33503 8.49125 1.06566 8.84438 0.938781C9.1975 0.811906 9.41 0.888781 9.835 1.04253C10.3234 1.21791 10.767 1.49916 11.1339 1.8661C11.5009 2.23305 11.7821 2.67662 11.9575 3.16503C12.1113 3.59003 12.1881 3.80253 12.0613 4.15566C11.9344 4.50816 11.6656 4.65816 11.1275 4.95878L10.2919 5.42441C9.64812 5.78316 9.32688 5.96316 9.18875 6.23003C9.05125 6.49753 9.10125 7.01628 9.20125 8.05378C9.275 8.81628 9.14812 9.55003 8.7225 10.2313C8.53625 10.5288 8.44313 10.6775 8.1425 10.7994C7.8425 10.9207 7.6575 10.8788 7.28687 10.7944Z" stroke="white" stroke-linecap="round" stroke-linejoin="round"/>
</svg>
