<svg width="12" height="13" viewBox="0 0 12 13" fill="none" xmlns="http://www.w3.org/2000/svg">
<path d="M11.2437 8.6875L10.1062 7.875C10.2937 7.2 10.3062 6.46875 10.1062 5.7375L11.2437 4.9375L10.3374 3.375L9.06868 3.95C8.57493 3.45 7.94993 3.0625 7.21868 2.88125L7.09368 1.5H5.28118L5.15618 2.88125C4.42493 3.0625 3.79993 3.45 3.30618 3.95L2.03743 3.375L1.13118 4.9375L2.26868 5.7375C2.06868 6.46875 2.08118 7.2 2.26868 7.875L1.13118 8.6875L2.03743 10.25L3.30618 9.66875C3.79993 10.1625 4.42493 10.5375 5.15618 10.7313L5.28118 12.125H7.09368L7.21868 10.7313C7.94993 10.5375 8.57493 10.1625 9.06868 9.66875L10.3374 10.25L11.2437 8.6875ZM7.43743 0.875C7.60618 0.875 7.74993 1 7.74993 1.1625L7.86243 2.4375C8.33743 2.6125 8.76243 2.86875 9.14368 3.175L10.2999 2.63125C10.4437 2.55625 10.6249 2.60625 10.7124 2.75L11.9624 4.9375C12.0499 5.06875 11.9999 5.25 11.8624 5.34375L10.8187 6.075C10.8999 6.575 10.8937 7.06875 10.8187 7.55L11.8624 8.28125C11.9999 8.375 12.0499 8.55625 11.9624 8.6875L10.7124 10.875C10.6249 11.0063 10.4437 11.0562 10.2999 10.9812L9.14368 10.4437C8.76243 10.75 8.33743 11 7.86243 11.1875L7.74993 12.4375C7.74993 12.6187 7.60618 12.75 7.43743 12.75H4.93743C4.85455 12.75 4.77506 12.7171 4.71646 12.6585C4.65785 12.5999 4.62493 12.5204 4.62493 12.4375L4.51243 11.1875C4.03743 11 3.61243 10.75 3.23118 10.4437L2.07493 10.9812C1.93118 11.0562 1.74993 11.0063 1.66243 10.875L0.412427 8.6875C0.324927 8.55625 0.374927 8.375 0.512427 8.28125L1.55618 7.55C1.48118 7.06875 1.47493 6.575 1.55618 6.075L0.512427 5.34375C0.374927 5.25 0.324927 5.06875 0.412427 4.9375L1.66243 2.75C1.74993 2.60625 1.93118 2.55625 2.07493 2.63125L3.23118 3.175C3.61243 2.86875 4.03743 2.6125 4.51243 2.4375L4.62493 1.1625C4.62493 1 4.76868 0.875 4.93743 0.875H7.43743ZM6.18743 4.625C6.76759 4.625 7.32399 4.85547 7.73422 5.2657C8.14446 5.67594 8.37493 6.23234 8.37493 6.8125C8.37493 7.39266 8.14446 7.94906 7.73422 8.3593C7.32399 8.76953 6.76759 9 6.18743 9C5.60727 9 5.05087 8.76953 4.64063 8.3593C4.2304 7.94906 3.99993 7.39266 3.99993 6.8125C3.99993 6.23234 4.2304 5.67594 4.64063 5.2657C5.05087 4.85547 5.60727 4.625 6.18743 4.625ZM6.18743 5.25C5.77303 5.25 5.3756 5.41462 5.08257 5.70765C4.78955 6.00067 4.62493 6.3981 4.62493 6.8125C4.62493 7.2269 4.78955 7.62433 5.08257 7.91735C5.3756 8.21038 5.77303 8.375 6.18743 8.375C6.60183 8.375 6.99926 8.21038 7.29228 7.91735C7.58531 7.62433 7.74993 7.2269 7.74993 6.8125C7.74993 6.3981 7.58531 6.00067 7.29228 5.70765C6.99926 5.41462 6.60183 5.25 6.18743 5.25Z" fill="white"/>
</svg>
